<?xml version="1.0" encoding="utf-8"?>
<!-- Generator: Adobe Illustrator 19.2.1, SVG Export Plug-In . SVG Version: 6.00 Build 0)  -->
<svg version="1.1" id="layer" xmlns="http://www.w3.org/2000/svg" xmlns:xlink="http://www.w3.org/1999/xlink" x="0px" y="0px"
	 viewBox="0 0 652 652" style="enable-background:new 0 0 652 652;" xml:space="preserve">
<style type="text/css">
	.st0{fill:#E49E00;}
	.st1{clip-path:url(#SVGID_2_);fill:url(#SVGID_3_);}
	.st2{clip-path:url(#SVGID_5_);fill:url(#SVGID_6_);}
	.st3{fill:#004399;}
</style>
<g>
	<path class="st0" d="M164,345.5c0,0.2,0,0.5,0,0.6c0,0.2-0.1,0.3-0.1,0.4c-0.1,0.1-0.1,0.2-0.2,0.2c-0.1,0.1-0.2,0.1-0.3,0.1h-9.3
		v8.6h8.8c0.1,0,0.2,0,0.3,0.1c0.1,0,0.2,0.1,0.2,0.2c0.1,0.1,0.1,0.2,0.1,0.4c0,0.2,0,0.4,0,0.7c0,0.2,0,0.5,0,0.6
		c0,0.2-0.1,0.3-0.1,0.4c-0.1,0.1-0.1,0.2-0.2,0.2c-0.1,0.1-0.2,0.1-0.3,0.1h-8.8v10.6c0,0.1,0,0.2-0.1,0.3
		c-0.1,0.1-0.1,0.1-0.3,0.2c-0.1,0-0.3,0.1-0.5,0.1c-0.2,0-0.5,0-0.8,0c-0.3,0-0.6,0-0.8,0c-0.2,0-0.4-0.1-0.5-0.1
		c-0.1,0-0.2-0.1-0.3-0.2c0-0.1-0.1-0.2-0.1-0.3v-23.5c0-0.5,0.1-0.9,0.4-1.1c0.3-0.2,0.6-0.3,0.9-0.3h11.4c0.1,0,0.2,0,0.3,0.1
		c0.1,0.1,0.2,0.1,0.2,0.3c0.1,0.1,0.1,0.3,0.1,0.5C164,345.1,164,345.3,164,345.5"/>
	<path class="st0" d="M170.4,369c0,0.1,0,0.2-0.1,0.3c-0.1,0.1-0.1,0.1-0.3,0.2c-0.1,0-0.3,0.1-0.5,0.1c-0.2,0-0.5,0-0.8,0
		c-0.3,0-0.6,0-0.8,0c-0.2,0-0.4-0.1-0.5-0.1c-0.1-0.1-0.2-0.1-0.3-0.2c0-0.1-0.1-0.2-0.1-0.3v-17.6c0-0.1,0-0.2,0.1-0.3
		c0-0.1,0.1-0.1,0.3-0.2c0.1-0.1,0.3-0.1,0.5-0.1c0.2,0,0.5,0,0.8,0c0.3,0,0.6,0,0.8,0c0.2,0,0.4,0.1,0.5,0.1c0.1,0,0.2,0.1,0.3,0.2
		c0,0.1,0.1,0.2,0.1,0.3V369z M170.8,345.4c0,0.8-0.1,1.3-0.4,1.6c-0.3,0.3-0.8,0.4-1.6,0.4c-0.8,0-1.3-0.1-1.6-0.4
		c-0.3-0.3-0.4-0.8-0.4-1.5c0-0.8,0.1-1.3,0.4-1.5c0.3-0.3,0.8-0.4,1.6-0.4c0.8,0,1.3,0.1,1.6,0.4
		C170.7,344.1,170.8,344.6,170.8,345.4"/>
	<path class="st0" d="M190,369c0,0.1,0,0.2-0.1,0.3c-0.1,0.1-0.1,0.1-0.2,0.2c-0.1,0.1-0.3,0.1-0.5,0.1c-0.2,0-0.5,0-0.8,0
		c-0.3,0-0.6,0-0.8,0c-0.2,0-0.4-0.1-0.5-0.1c-0.1-0.1-0.2-0.1-0.3-0.2c-0.1-0.1-0.1-0.2-0.1-0.3v-10.3c0-1-0.1-1.8-0.2-2.4
		c-0.2-0.6-0.4-1.1-0.7-1.6c-0.3-0.4-0.7-0.8-1.2-1c-0.5-0.2-1-0.4-1.7-0.4c-0.8,0-1.6,0.3-2.4,0.9c-0.8,0.6-1.7,1.4-2.5,2.5V369
		c0,0.1,0,0.2-0.1,0.3c-0.1,0.1-0.1,0.1-0.3,0.2c-0.1,0.1-0.3,0.1-0.5,0.1c-0.2,0-0.5,0-0.8,0c-0.3,0-0.6,0-0.8,0
		c-0.2,0-0.4-0.1-0.5-0.1c-0.1-0.1-0.2-0.1-0.3-0.2c0-0.1-0.1-0.2-0.1-0.3v-17.6c0-0.1,0-0.2,0.1-0.3c0-0.1,0.1-0.1,0.2-0.2
		c0.1-0.1,0.3-0.1,0.4-0.1c0.2,0,0.4,0,0.7,0c0.3,0,0.5,0,0.7,0c0.2,0,0.3,0.1,0.4,0.1c0.1,0.1,0.2,0.1,0.2,0.2
		c0,0.1,0.1,0.2,0.1,0.3v2.3c1-1.1,2-1.9,3-2.4c1-0.5,2-0.8,3-0.8c1.2,0,2.2,0.2,3,0.6c0.8,0.4,1.4,0.9,1.9,1.6
		c0.5,0.7,0.9,1.4,1.1,2.3c0.2,0.9,0.3,2,0.3,3.2V369z"/>
	<path class="st0" d="M204.4,360.9h-2.8c-0.9,0-1.7,0.1-2.3,0.2c-0.7,0.2-1.2,0.4-1.6,0.7c-0.4,0.3-0.8,0.6-1,1.1
		c-0.2,0.4-0.3,0.9-0.3,1.4c0,0.9,0.3,1.6,0.9,2.2c0.6,0.5,1.4,0.8,2.4,0.8c0.9,0,1.6-0.2,2.4-0.6c0.7-0.4,1.5-1.1,2.3-2V360.9z
		 M207.6,369c0,0.2,0,0.3-0.2,0.4c-0.1,0.1-0.2,0.1-0.4,0.2c-0.2,0-0.5,0.1-0.8,0.1c-0.3,0-0.6,0-0.8-0.1c-0.2,0-0.3-0.1-0.4-0.2
		c-0.1-0.1-0.1-0.2-0.1-0.4v-1.8c-0.8,0.8-1.6,1.5-2.6,1.9c-0.9,0.5-2,0.7-3,0.7c-0.9,0-1.8-0.1-2.5-0.4c-0.8-0.2-1.4-0.6-1.9-1
		c-0.5-0.5-0.9-1-1.2-1.7c-0.3-0.7-0.4-1.4-0.4-2.3c0-1,0.2-1.9,0.6-2.6c0.4-0.7,1-1.3,1.7-1.8c0.8-0.5,1.7-0.8,2.8-1.1
		c1.1-0.2,2.3-0.4,3.7-0.4h2.4v-1.4c0-0.7-0.1-1.3-0.2-1.8c-0.1-0.5-0.4-0.9-0.7-1.3c-0.3-0.4-0.7-0.6-1.2-0.8
		c-0.5-0.2-1.1-0.3-1.9-0.3c-0.8,0-1.5,0.1-2.1,0.3c-0.6,0.2-1.2,0.4-1.7,0.6c-0.5,0.2-0.9,0.4-1.2,0.6c-0.3,0.2-0.6,0.3-0.7,0.3
		c-0.1,0-0.2,0-0.3-0.1c-0.1-0.1-0.1-0.1-0.2-0.2c-0.1-0.1-0.1-0.2-0.1-0.4c0-0.2,0-0.3,0-0.5c0-0.3,0-0.6,0.1-0.8
		c0-0.2,0.2-0.4,0.3-0.5c0.2-0.2,0.5-0.4,0.9-0.6c0.4-0.2,0.9-0.4,1.5-0.6c0.6-0.2,1.2-0.3,1.8-0.5c0.7-0.1,1.3-0.2,2-0.2
		c1.3,0,2.3,0.1,3.2,0.4c0.9,0.3,1.6,0.7,2.2,1.3c0.5,0.6,0.9,1.2,1.2,2.1c0.2,0.8,0.4,1.8,0.4,2.9V369z"/>
	<path class="st0" d="M227.1,369c0,0.1,0,0.2-0.1,0.3c-0.1,0.1-0.1,0.1-0.3,0.2c-0.1,0.1-0.3,0.1-0.5,0.1c-0.2,0-0.5,0-0.8,0
		c-0.3,0-0.6,0-0.8,0c-0.2,0-0.4-0.1-0.5-0.1c-0.1-0.1-0.2-0.1-0.3-0.2c-0.1-0.1-0.1-0.2-0.1-0.3v-10.3c0-1-0.1-1.8-0.2-2.4
		c-0.2-0.6-0.4-1.1-0.7-1.6c-0.3-0.4-0.7-0.8-1.2-1c-0.5-0.2-1-0.4-1.7-0.4c-0.8,0-1.6,0.3-2.4,0.9c-0.8,0.6-1.7,1.4-2.5,2.5V369
		c0,0.1,0,0.2-0.1,0.3c0,0.1-0.1,0.1-0.3,0.2c-0.1,0.1-0.3,0.1-0.5,0.1c-0.2,0-0.5,0-0.8,0c-0.3,0-0.6,0-0.8,0
		c-0.2,0-0.4-0.1-0.5-0.1c-0.1-0.1-0.2-0.1-0.3-0.2c0-0.1-0.1-0.2-0.1-0.3v-17.6c0-0.1,0-0.2,0.1-0.3c0-0.1,0.1-0.1,0.2-0.2
		c0.1-0.1,0.3-0.1,0.5-0.1c0.2,0,0.4,0,0.7,0c0.3,0,0.5,0,0.7,0c0.2,0,0.3,0.1,0.4,0.1c0.1,0.1,0.2,0.1,0.2,0.2
		c0,0.1,0.1,0.2,0.1,0.3v2.3c1-1.1,2-1.9,3-2.4c1-0.5,2-0.8,3-0.8c1.2,0,2.2,0.2,3,0.6c0.8,0.4,1.5,0.9,2,1.6
		c0.5,0.7,0.8,1.4,1.1,2.3c0.2,0.9,0.3,2,0.3,3.2V369z"/>
	<path class="st0" d="M244.1,366.3c0,0.2,0,0.4,0,0.6c0,0.2,0,0.3-0.1,0.4c0,0.1-0.1,0.2-0.1,0.3c0,0.1-0.1,0.2-0.3,0.4
		c-0.2,0.2-0.4,0.4-0.8,0.6c-0.4,0.2-0.8,0.5-1.3,0.6c-0.5,0.2-1,0.3-1.6,0.5c-0.6,0.1-1.2,0.2-1.8,0.2c-1.3,0-2.4-0.2-3.4-0.6
		c-1-0.4-1.8-1-2.5-1.8c-0.7-0.8-1.2-1.8-1.5-3c-0.3-1.2-0.5-2.5-0.5-4c0-1.7,0.2-3.2,0.6-4.5c0.4-1.3,1-2.3,1.7-3.1
		c0.7-0.8,1.6-1.4,2.6-1.8c1-0.4,2.1-0.6,3.2-0.6c0.6,0,1.1,0,1.6,0.2c0.5,0.1,1,0.2,1.5,0.4c0.4,0.2,0.8,0.4,1.2,0.6
		c0.3,0.2,0.6,0.4,0.7,0.6c0.2,0.1,0.3,0.3,0.3,0.4c0.1,0.1,0.1,0.2,0.2,0.3c0,0.1,0.1,0.3,0.1,0.4c0,0.2,0,0.4,0,0.6
		c0,0.5-0.1,0.9-0.2,1.1c-0.1,0.2-0.3,0.3-0.4,0.3c-0.2,0-0.4-0.1-0.7-0.3c-0.3-0.2-0.6-0.5-1-0.7c-0.4-0.3-0.9-0.5-1.4-0.7
		c-0.6-0.2-1.2-0.3-2-0.3c-1.6,0-2.7,0.6-3.6,1.8c-0.8,1.2-1.2,2.9-1.2,5.2c0,1.1,0.1,2.1,0.3,3c0.2,0.9,0.5,1.6,0.9,2.1
		c0.4,0.6,0.9,1,1.5,1.3c0.6,0.3,1.3,0.4,2.1,0.4c0.7,0,1.4-0.1,2-0.4c0.6-0.2,1.1-0.5,1.5-0.8c0.4-0.3,0.8-0.5,1-0.8
		c0.3-0.2,0.5-0.3,0.7-0.3c0.1,0,0.2,0,0.2,0.1c0.1,0.1,0.1,0.1,0.2,0.3c0,0.1,0.1,0.3,0.1,0.5C244.1,365.8,244.1,366,244.1,366.3"
		/>
	<path class="st0" d="M250,369c0,0.1,0,0.2-0.1,0.3c-0.1,0.1-0.1,0.1-0.3,0.2c-0.1,0-0.3,0.1-0.5,0.1c-0.2,0-0.5,0-0.8,0
		c-0.3,0-0.6,0-0.8,0c-0.2,0-0.4-0.1-0.5-0.1c-0.1-0.1-0.2-0.1-0.3-0.2c0-0.1-0.1-0.2-0.1-0.3v-17.6c0-0.1,0-0.2,0.1-0.3
		c0-0.1,0.1-0.1,0.3-0.2c0.1-0.1,0.3-0.1,0.5-0.1c0.2,0,0.5,0,0.8,0c0.3,0,0.6,0,0.8,0c0.2,0,0.4,0.1,0.5,0.1c0.1,0,0.2,0.1,0.3,0.2
		c0,0.1,0.1,0.2,0.1,0.3V369z M250.4,345.4c0,0.8-0.1,1.3-0.4,1.6c-0.3,0.3-0.8,0.4-1.6,0.4c-0.8,0-1.3-0.1-1.6-0.4
		c-0.3-0.3-0.4-0.8-0.4-1.5c0-0.8,0.1-1.3,0.4-1.5c0.3-0.3,0.8-0.4,1.6-0.4c0.8,0,1.3,0.1,1.6,0.4
		C250.3,344.1,250.4,344.6,250.4,345.4"/>
	<path class="st0" d="M264.5,360.9h-2.8c-0.9,0-1.7,0.1-2.3,0.2c-0.7,0.2-1.2,0.4-1.6,0.7c-0.4,0.3-0.7,0.6-1,1.1
		c-0.2,0.4-0.3,0.9-0.3,1.4c0,0.9,0.3,1.6,0.9,2.2c0.6,0.5,1.4,0.8,2.4,0.8c0.9,0,1.6-0.2,2.4-0.6c0.7-0.4,1.5-1.1,2.3-2V360.9z
		 M267.7,369c0,0.2-0.1,0.3-0.2,0.4c-0.1,0.1-0.2,0.1-0.4,0.2c-0.2,0-0.5,0.1-0.8,0.1c-0.3,0-0.6,0-0.8-0.1c-0.2,0-0.4-0.1-0.4-0.2
		c-0.1-0.1-0.1-0.2-0.1-0.4v-1.8c-0.8,0.8-1.6,1.5-2.6,1.9c-0.9,0.5-1.9,0.7-3,0.7c-0.9,0-1.8-0.1-2.5-0.4c-0.8-0.2-1.4-0.6-1.9-1
		c-0.5-0.5-0.9-1-1.2-1.7c-0.3-0.7-0.4-1.4-0.4-2.3c0-1,0.2-1.9,0.6-2.6c0.4-0.7,1-1.3,1.7-1.8c0.8-0.5,1.7-0.8,2.8-1.1
		c1.1-0.2,2.3-0.4,3.7-0.4h2.4v-1.4c0-0.7-0.1-1.3-0.2-1.8c-0.1-0.5-0.4-0.9-0.7-1.3c-0.3-0.4-0.7-0.6-1.2-0.8
		c-0.5-0.2-1.1-0.3-1.9-0.3c-0.8,0-1.5,0.1-2.1,0.3c-0.6,0.2-1.2,0.4-1.7,0.6c-0.5,0.2-0.9,0.4-1.2,0.6c-0.3,0.2-0.6,0.3-0.7,0.3
		c-0.1,0-0.2,0-0.3-0.1c-0.1-0.1-0.1-0.1-0.2-0.2c-0.1-0.1-0.1-0.2-0.1-0.4c0-0.2,0-0.3,0-0.5c0-0.3,0-0.6,0.1-0.8
		c0-0.2,0.1-0.4,0.3-0.5c0.2-0.2,0.5-0.4,0.9-0.6c0.4-0.2,0.9-0.4,1.5-0.6c0.6-0.2,1.2-0.3,1.8-0.5c0.7-0.1,1.3-0.2,2-0.2
		c1.3,0,2.3,0.1,3.2,0.4c0.9,0.3,1.6,0.7,2.2,1.3c0.5,0.6,0.9,1.2,1.2,2.1c0.2,0.8,0.4,1.8,0.4,2.9V369z"/>
	<path class="st0" d="M275.3,369c0,0.1,0,0.2-0.1,0.3c0,0.1-0.1,0.1-0.3,0.2c-0.1,0.1-0.3,0.1-0.5,0.1c-0.2,0-0.5,0-0.8,0
		c-0.3,0-0.6,0-0.8,0c-0.2,0-0.4-0.1-0.5-0.1c-0.1-0.1-0.2-0.1-0.3-0.2c0-0.1-0.1-0.2-0.1-0.3v-26.2c0-0.1,0-0.2,0.1-0.3
		c0-0.1,0.1-0.1,0.3-0.2c0.1-0.1,0.3-0.1,0.5-0.1c0.2,0,0.5,0,0.8,0c0.3,0,0.6,0,0.8,0c0.2,0,0.4,0.1,0.5,0.1c0.1,0,0.2,0.1,0.3,0.2
		c0.1,0.1,0.1,0.2,0.1,0.3V369z"/>
	<path class="st0" d="M282.9,369c0,0.1,0,0.2-0.1,0.3c-0.1,0.1-0.1,0.1-0.2,0.2c-0.1,0.1-0.3,0.1-0.5,0.1c-0.2,0-0.5,0-0.8,0
		c-0.3,0-0.6,0-0.8,0c-0.2,0-0.4-0.1-0.5-0.1c-0.1-0.1-0.2-0.1-0.3-0.2c0-0.1-0.1-0.2-0.1-0.3v-26.2c0-0.1,0-0.2,0.1-0.3
		c0-0.1,0.1-0.1,0.3-0.2c0.1-0.1,0.3-0.1,0.5-0.1c0.2,0,0.5,0,0.8,0c0.3,0,0.6,0,0.8,0c0.2,0,0.4,0.1,0.5,0.1c0.1,0,0.2,0.1,0.2,0.2
		c0.1,0.1,0.1,0.2,0.1,0.3V369z"/>
	<path class="st0" d="M295.3,369.5l-2.4,6.5c-0.1,0.2-0.3,0.4-0.6,0.5c-0.3,0.1-0.8,0.2-1.5,0.2c-0.3,0-0.6,0-0.8,0
		c-0.2,0-0.4-0.1-0.5-0.2c-0.1-0.1-0.2-0.2-0.2-0.3c0-0.1,0-0.3,0.1-0.5l2.4-6.1c-0.1-0.1-0.2-0.1-0.3-0.3c-0.1-0.1-0.2-0.2-0.2-0.4
		l-6.3-16.9c-0.1-0.3-0.2-0.5-0.2-0.6c0-0.2,0.1-0.3,0.2-0.4c0.1-0.1,0.3-0.1,0.5-0.2c0.2,0,0.5,0,0.9,0c0.4,0,0.7,0,0.9,0
		c0.2,0,0.4,0.1,0.5,0.1c0.1,0.1,0.2,0.1,0.3,0.2c0.1,0.1,0.1,0.2,0.2,0.4l5,14.2h0.1l4.9-14.2c0.1-0.2,0.2-0.4,0.3-0.5
		c0.1-0.1,0.3-0.1,0.5-0.2c0.2,0,0.5,0,1,0c0.4,0,0.7,0,0.9,0c0.2,0,0.4,0.1,0.5,0.2c0.1,0.1,0.2,0.2,0.2,0.4c0,0.2,0,0.4-0.1,0.6
		L295.3,369.5z"/>
	<path class="st0" d="M320.5,367.7c0,0.4,0,0.7-0.1,0.9c0,0.2-0.1,0.4-0.2,0.5c-0.1,0.1-0.3,0.2-0.5,0.3c-0.2,0.1-0.5,0.2-0.7,0.2
		c-0.3,0.1-0.6,0.1-0.9,0.1c-0.3,0-0.6,0.1-0.9,0.1c-0.9,0-1.7-0.1-2.4-0.4c-0.7-0.2-1.2-0.6-1.6-1.1c-0.4-0.5-0.7-1.1-0.9-1.9
		c-0.2-0.8-0.3-1.6-0.3-2.7v-10.3h-2.5c-0.2,0-0.4-0.1-0.5-0.3c-0.1-0.2-0.2-0.5-0.2-1c0-0.3,0-0.5,0-0.6c0-0.2,0.1-0.3,0.1-0.4
		c0.1-0.1,0.1-0.2,0.2-0.2c0.1,0,0.2-0.1,0.3-0.1h2.5v-4.2c0-0.1,0-0.2,0.1-0.2c0-0.1,0.1-0.1,0.3-0.2c0.1-0.1,0.3-0.1,0.5-0.1
		c0.2,0,0.5,0,0.8,0c0.3,0,0.6,0,0.8,0c0.2,0,0.4,0.1,0.5,0.1c0.1,0.1,0.2,0.1,0.3,0.2c0.1,0.1,0.1,0.2,0.1,0.2v4.2h4.5
		c0.1,0,0.2,0,0.3,0.1c0.1,0,0.1,0.1,0.2,0.2c0.1,0.1,0.1,0.3,0.1,0.4c0,0.2,0,0.4,0,0.6c0,0.5-0.1,0.8-0.2,1
		c-0.1,0.2-0.3,0.3-0.5,0.3h-4.5v9.8c0,1.2,0.2,2.1,0.5,2.8c0.4,0.6,1,0.9,1.9,0.9c0.3,0,0.6,0,0.8-0.1c0.2-0.1,0.4-0.1,0.6-0.2
		c0.2-0.1,0.3-0.1,0.5-0.2c0.1-0.1,0.2-0.1,0.3-0.1c0.1,0,0.1,0,0.2,0.1c0.1,0,0.1,0.1,0.1,0.2c0,0.1,0.1,0.2,0.1,0.4
		C320.5,367.2,320.5,367.4,320.5,367.7"/>
	<path class="st0" d="M333.5,352.5c0,0.3,0,0.5,0,0.7c0,0.2,0,0.4-0.1,0.5c0,0.1-0.1,0.2-0.1,0.3c-0.1,0.1-0.1,0.1-0.2,0.1
		c-0.1,0-0.2,0-0.4-0.1c-0.1-0.1-0.3-0.1-0.5-0.2c-0.2-0.1-0.4-0.1-0.6-0.2c-0.2,0-0.5-0.1-0.8-0.1c-0.3,0-0.6,0.1-1,0.2
		c-0.3,0.1-0.6,0.4-1,0.7c-0.3,0.3-0.7,0.7-1.1,1.2c-0.4,0.5-0.8,1.1-1.3,1.8V369c0,0.1,0,0.2-0.1,0.3c-0.1,0.1-0.1,0.1-0.2,0.2
		c-0.1,0.1-0.3,0.1-0.5,0.1c-0.2,0-0.5,0-0.8,0c-0.3,0-0.6,0-0.8,0c-0.2,0-0.4-0.1-0.5-0.1c-0.1-0.1-0.2-0.1-0.3-0.2
		c0-0.1-0.1-0.2-0.1-0.3v-17.6c0-0.1,0-0.2,0.1-0.3c0-0.1,0.1-0.1,0.2-0.2c0.1-0.1,0.3-0.1,0.5-0.1c0.2,0,0.4,0,0.7,0
		c0.3,0,0.5,0,0.7,0c0.2,0,0.3,0.1,0.4,0.1c0.1,0.1,0.2,0.1,0.2,0.2c0.1,0.1,0.1,0.2,0.1,0.3v2.6c0.5-0.7,0.9-1.3,1.4-1.7
		c0.4-0.4,0.8-0.8,1.2-1.1c0.4-0.3,0.7-0.4,1.1-0.5c0.4-0.1,0.7-0.2,1.1-0.2c0.2,0,0.4,0,0.6,0c0.2,0,0.4,0.1,0.7,0.1
		c0.2,0.1,0.4,0.1,0.6,0.2c0.2,0.1,0.3,0.1,0.4,0.2c0.1,0.1,0.1,0.1,0.2,0.2c0,0.1,0.1,0.1,0.1,0.2c0,0.1,0,0.2,0,0.4
		C333.5,351.9,333.5,352.2,333.5,352.5"/>
	<path class="st0" d="M344.8,360.9H342c-0.9,0-1.7,0.1-2.3,0.2c-0.7,0.2-1.2,0.4-1.6,0.7c-0.4,0.3-0.7,0.6-1,1.1
		c-0.2,0.4-0.3,0.9-0.3,1.4c0,0.9,0.3,1.6,0.9,2.2c0.6,0.5,1.4,0.8,2.4,0.8c0.9,0,1.6-0.2,2.4-0.6c0.7-0.4,1.5-1.1,2.3-2V360.9z
		 M348,369c0,0.2-0.1,0.3-0.2,0.4c-0.1,0.1-0.2,0.1-0.4,0.2c-0.2,0-0.5,0.1-0.8,0.1c-0.3,0-0.6,0-0.8-0.1c-0.2,0-0.4-0.1-0.4-0.2
		c-0.1-0.1-0.1-0.2-0.1-0.4v-1.8c-0.8,0.8-1.6,1.5-2.6,1.9c-0.9,0.5-1.9,0.7-3,0.7c-0.9,0-1.8-0.1-2.5-0.4c-0.8-0.2-1.4-0.6-1.9-1
		c-0.5-0.5-0.9-1-1.2-1.7c-0.3-0.7-0.4-1.4-0.4-2.3c0-1,0.2-1.9,0.6-2.6c0.4-0.7,1-1.3,1.7-1.8c0.8-0.5,1.7-0.8,2.8-1.1
		c1.1-0.2,2.3-0.4,3.7-0.4h2.4v-1.4c0-0.7-0.1-1.3-0.2-1.8c-0.1-0.5-0.4-0.9-0.7-1.3c-0.3-0.4-0.7-0.6-1.2-0.8
		c-0.5-0.2-1.1-0.3-1.9-0.3c-0.8,0-1.5,0.1-2.1,0.3c-0.6,0.2-1.2,0.4-1.7,0.6c-0.5,0.2-0.9,0.4-1.2,0.6c-0.3,0.2-0.6,0.3-0.7,0.3
		c-0.1,0-0.2,0-0.3-0.1c-0.1-0.1-0.2-0.1-0.2-0.2c-0.1-0.1-0.1-0.2-0.1-0.4c0-0.2,0-0.3,0-0.5c0-0.3,0-0.6,0.1-0.8
		c0-0.2,0.1-0.4,0.3-0.5c0.2-0.2,0.5-0.4,0.9-0.6c0.4-0.2,0.9-0.4,1.5-0.6c0.6-0.2,1.2-0.3,1.9-0.5c0.7-0.1,1.3-0.2,2-0.2
		c1.3,0,2.3,0.1,3.2,0.4c0.9,0.3,1.6,0.7,2.2,1.3c0.5,0.6,0.9,1.2,1.2,2.1c0.2,0.8,0.4,1.8,0.4,2.9V369z"/>
	<path class="st0" d="M367.5,369c0,0.1,0,0.2-0.1,0.3c-0.1,0.1-0.1,0.1-0.3,0.2c-0.1,0.1-0.3,0.1-0.5,0.1c-0.2,0-0.5,0-0.8,0
		c-0.3,0-0.6,0-0.8,0c-0.2,0-0.4-0.1-0.5-0.1c-0.1-0.1-0.2-0.1-0.3-0.2c-0.1-0.1-0.1-0.2-0.1-0.3v-10.3c0-1-0.1-1.8-0.2-2.4
		c-0.2-0.6-0.4-1.1-0.7-1.6c-0.3-0.4-0.7-0.8-1.2-1c-0.5-0.2-1-0.4-1.7-0.4c-0.8,0-1.6,0.3-2.4,0.9c-0.8,0.6-1.7,1.4-2.6,2.5V369
		c0,0.1,0,0.2-0.1,0.3c0,0.1-0.1,0.1-0.2,0.2c-0.1,0.1-0.3,0.1-0.5,0.1c-0.2,0-0.5,0-0.8,0c-0.3,0-0.6,0-0.8,0
		c-0.2,0-0.4-0.1-0.5-0.1c-0.1-0.1-0.2-0.1-0.3-0.2c-0.1-0.1-0.1-0.2-0.1-0.3v-17.6c0-0.1,0-0.2,0.1-0.3c0-0.1,0.1-0.1,0.2-0.2
		c0.1-0.1,0.3-0.1,0.5-0.1c0.2,0,0.4,0,0.7,0c0.3,0,0.5,0,0.7,0c0.2,0,0.3,0.1,0.4,0.1c0.1,0.1,0.2,0.1,0.2,0.2
		c0,0.1,0.1,0.2,0.1,0.3v2.3c1-1.1,2-1.9,3-2.4c1-0.5,2-0.8,3-0.8c1.2,0,2.2,0.2,3,0.6c0.8,0.4,1.5,0.9,1.9,1.6
		c0.5,0.7,0.9,1.4,1.1,2.3c0.2,0.9,0.3,2,0.3,3.2V369z"/>
	<path class="st0" d="M382.9,364.2c0,0.9-0.2,1.7-0.5,2.4c-0.3,0.7-0.8,1.3-1.4,1.8c-0.6,0.5-1.3,0.9-2.2,1.1
		c-0.9,0.2-1.8,0.4-2.8,0.4c-0.6,0-1.2,0-1.8-0.1c-0.6-0.1-1.1-0.2-1.5-0.4c-0.4-0.2-0.8-0.3-1.1-0.5c-0.3-0.2-0.5-0.3-0.7-0.5
		c-0.1-0.1-0.2-0.3-0.3-0.5c-0.1-0.2-0.1-0.6-0.1-1c0-0.2,0-0.5,0-0.6c0-0.2,0.1-0.3,0.1-0.4c0-0.1,0.1-0.2,0.2-0.2
		c0.1,0,0.2-0.1,0.2-0.1c0.1,0,0.4,0.1,0.6,0.3c0.3,0.2,0.6,0.4,1,0.6c0.4,0.2,0.9,0.4,1.5,0.6c0.6,0.2,1.2,0.3,1.9,0.3
		c0.5,0,1-0.1,1.5-0.2c0.4-0.1,0.8-0.3,1.2-0.5c0.3-0.2,0.6-0.5,0.7-0.9c0.2-0.4,0.3-0.8,0.3-1.3c0-0.5-0.1-0.9-0.4-1.2
		c-0.3-0.3-0.6-0.6-1-0.9c-0.4-0.3-0.9-0.5-1.4-0.7c-0.5-0.2-1.1-0.4-1.6-0.6c-0.6-0.2-1.1-0.5-1.6-0.8c-0.5-0.3-1-0.6-1.4-1
		c-0.4-0.4-0.8-0.9-1-1.4c-0.3-0.6-0.4-1.2-0.4-2c0-0.7,0.1-1.4,0.4-2c0.3-0.6,0.7-1.2,1.2-1.7c0.5-0.5,1.2-0.9,2-1.1
		c0.8-0.3,1.7-0.4,2.8-0.4c0.5,0,0.9,0,1.4,0.1c0.5,0.1,0.9,0.2,1.3,0.3c0.4,0.1,0.7,0.2,1,0.4c0.3,0.1,0.5,0.3,0.6,0.4
		c0.1,0.1,0.2,0.2,0.3,0.3c0,0.1,0.1,0.2,0.1,0.3c0,0.1,0,0.2,0.1,0.4c0,0.2,0,0.3,0,0.5c0,0.2,0,0.4,0,0.6c0,0.2-0.1,0.3-0.1,0.4
		c0,0.1-0.1,0.2-0.2,0.2c-0.1,0-0.1,0.1-0.2,0.1c-0.1,0-0.3-0.1-0.5-0.2c-0.2-0.1-0.5-0.3-0.9-0.5c-0.3-0.2-0.8-0.3-1.2-0.5
		c-0.5-0.1-1-0.2-1.6-0.2c-0.5,0-1,0.1-1.4,0.2c-0.4,0.1-0.8,0.3-1,0.5c-0.3,0.2-0.5,0.5-0.6,0.8c-0.1,0.3-0.2,0.7-0.2,1
		c0,0.5,0.1,0.9,0.4,1.3c0.3,0.4,0.6,0.7,1,0.9c0.4,0.3,0.9,0.5,1.4,0.7c0.5,0.2,1.1,0.4,1.6,0.6c0.6,0.2,1.1,0.5,1.7,0.7
		c0.5,0.3,1,0.6,1.4,1c0.4,0.4,0.8,0.9,1,1.4C382.8,362.7,382.9,363.4,382.9,364.2"/>
	<path class="st0" d="M395.2,344.1c0,0.2,0,0.4,0,0.6c0,0.2-0.1,0.3-0.1,0.4c0,0.1-0.1,0.2-0.1,0.2c0,0-0.1,0.1-0.2,0.1
		c-0.1,0-0.2,0-0.3-0.1c-0.1-0.1-0.3-0.1-0.5-0.2c-0.2-0.1-0.4-0.1-0.7-0.2c-0.3-0.1-0.6-0.1-0.9-0.1c-0.5,0-0.9,0.1-1.2,0.2
		c-0.3,0.2-0.6,0.4-0.8,0.7c-0.2,0.3-0.4,0.8-0.5,1.3c-0.1,0.5-0.1,1.2-0.1,1.9v1.9h3.9c0.1,0,0.2,0,0.3,0.1c0.1,0,0.1,0.1,0.2,0.2
		c0.1,0.1,0.1,0.3,0.1,0.4c0,0.2,0,0.4,0,0.6c0,0.5-0.1,0.8-0.2,1c-0.1,0.2-0.3,0.3-0.5,0.3h-3.9V369c0,0.1,0,0.2-0.1,0.3
		c-0.1,0.1-0.1,0.1-0.3,0.2c-0.1,0.1-0.3,0.1-0.5,0.1c-0.2,0-0.5,0-0.8,0c-0.3,0-0.6,0-0.8,0c-0.2,0-0.4-0.1-0.5-0.1
		c-0.1-0.1-0.2-0.1-0.3-0.2c-0.1-0.1-0.1-0.2-0.1-0.3v-15.5h-2.5c-0.2,0-0.4-0.1-0.5-0.3c-0.1-0.2-0.2-0.5-0.2-1c0-0.3,0-0.5,0-0.6
		c0-0.2,0.1-0.3,0.1-0.4c0.1-0.1,0.1-0.2,0.2-0.2c0.1,0,0.2-0.1,0.3-0.1h2.5V349c0-1.2,0.1-2.3,0.3-3.2c0.2-0.9,0.6-1.6,1-2.2
		c0.5-0.6,1.1-1,1.8-1.2c0.7-0.3,1.6-0.4,2.5-0.4c0.5,0,0.9,0,1.3,0.1c0.4,0.1,0.8,0.2,1,0.3c0.2,0.1,0.4,0.2,0.5,0.3
		c0.1,0.1,0.1,0.2,0.2,0.3c0.1,0.1,0.1,0.3,0.1,0.4C395.2,343.6,395.2,343.8,395.2,344.1"/>
	<path class="st0" d="M408.4,360.2c0-1-0.1-1.9-0.3-2.7c-0.2-0.8-0.5-1.6-0.9-2.2c-0.4-0.6-1-1.1-1.7-1.5c-0.7-0.4-1.6-0.6-2.6-0.6
		c-1,0-1.8,0.2-2.5,0.5c-0.7,0.3-1.3,0.8-1.7,1.4c-0.5,0.6-0.8,1.4-1,2.2c-0.2,0.9-0.3,1.8-0.3,2.8c0,1,0.1,1.9,0.3,2.7
		c0.2,0.8,0.5,1.6,0.9,2.2c0.4,0.6,1,1.1,1.7,1.5c0.7,0.4,1.6,0.6,2.6,0.6c1,0,1.8-0.2,2.5-0.5c0.7-0.3,1.3-0.8,1.7-1.4
		c0.4-0.6,0.8-1.3,1-2.2C408.3,362.1,408.4,361.2,408.4,360.2 M411.8,359.9c0,1.4-0.2,2.8-0.6,4c-0.4,1.2-0.9,2.3-1.7,3.1
		c-0.7,0.9-1.7,1.6-2.8,2c-1.1,0.5-2.4,0.7-3.9,0.7c-1.4,0-2.7-0.2-3.8-0.7c-1.1-0.4-2-1.1-2.7-1.9c-0.7-0.8-1.3-1.8-1.6-3
		c-0.4-1.2-0.5-2.5-0.5-4c0-1.4,0.2-2.8,0.6-4c0.4-1.2,0.9-2.3,1.7-3.1c0.8-0.9,1.7-1.6,2.8-2c1.1-0.5,2.4-0.7,3.9-0.7
		c1.5,0,2.7,0.2,3.8,0.6c1.1,0.4,2,1.1,2.7,1.9c0.7,0.8,1.3,1.8,1.6,3C411.6,357.1,411.8,358.5,411.8,359.9"/>
	<path class="st0" d="M425.3,352.5c0,0.3,0,0.5,0,0.7c0,0.2,0,0.4-0.1,0.5c0,0.1-0.1,0.2-0.1,0.3c-0.1,0.1-0.1,0.1-0.2,0.1
		c-0.1,0-0.2,0-0.4-0.1c-0.2-0.1-0.3-0.1-0.5-0.2c-0.2-0.1-0.4-0.1-0.6-0.2c-0.2,0-0.5-0.1-0.8-0.1c-0.3,0-0.7,0.1-1,0.2
		c-0.3,0.1-0.6,0.4-1,0.7c-0.3,0.3-0.7,0.7-1.1,1.2c-0.4,0.5-0.8,1.1-1.3,1.8V369c0,0.1,0,0.2-0.1,0.3c-0.1,0.1-0.1,0.1-0.3,0.2
		c-0.1,0.1-0.3,0.1-0.5,0.1c-0.2,0-0.5,0-0.8,0c-0.3,0-0.6,0-0.8,0c-0.2,0-0.4-0.1-0.5-0.1c-0.1-0.1-0.2-0.1-0.3-0.2
		c0-0.1-0.1-0.2-0.1-0.3v-17.6c0-0.1,0-0.2,0.1-0.3c0-0.1,0.1-0.1,0.2-0.2c0.1-0.1,0.3-0.1,0.5-0.1c0.2,0,0.4,0,0.7,0
		c0.3,0,0.5,0,0.7,0c0.2,0,0.3,0.1,0.4,0.1c0.1,0.1,0.2,0.1,0.2,0.2c0,0.1,0.1,0.2,0.1,0.3v2.6c0.5-0.7,0.9-1.3,1.4-1.7
		c0.4-0.4,0.8-0.8,1.2-1.1c0.4-0.3,0.8-0.4,1.1-0.5c0.4-0.1,0.8-0.2,1.1-0.2c0.2,0,0.4,0,0.6,0c0.2,0,0.4,0.1,0.7,0.1
		c0.2,0.1,0.4,0.1,0.6,0.2c0.2,0.1,0.3,0.1,0.4,0.2c0.1,0.1,0.1,0.1,0.2,0.2c0,0.1,0,0.1,0.1,0.2c0,0.1,0,0.2,0,0.4
		C425.3,351.9,425.3,352.2,425.3,352.5"/>
	<path class="st0" d="M453.5,369c0,0.1,0,0.2-0.1,0.3c-0.1,0.1-0.1,0.1-0.2,0.2c-0.1,0.1-0.3,0.1-0.5,0.1c-0.2,0-0.5,0-0.8,0
		c-0.3,0-0.6,0-0.8,0c-0.2,0-0.4-0.1-0.5-0.1c-0.1-0.1-0.2-0.1-0.3-0.2c-0.1-0.1-0.1-0.2-0.1-0.3v-10.7c0-0.7-0.1-1.4-0.2-2
		c-0.1-0.6-0.3-1.1-0.6-1.6c-0.3-0.4-0.7-0.8-1.1-1c-0.4-0.2-1-0.4-1.6-0.4c-0.7,0-1.5,0.3-2.2,0.9c-0.8,0.6-1.6,1.4-2.5,2.5V369
		c0,0.1,0,0.2-0.1,0.3c-0.1,0.1-0.1,0.1-0.3,0.2c-0.1,0.1-0.3,0.1-0.5,0.1c-0.2,0-0.5,0-0.8,0c-0.3,0-0.6,0-0.8,0
		c-0.2,0-0.4-0.1-0.5-0.1c-0.1-0.1-0.2-0.1-0.2-0.2c0-0.1-0.1-0.2-0.1-0.3v-10.7c0-0.7-0.1-1.4-0.2-2c-0.1-0.6-0.4-1.1-0.6-1.6
		c-0.3-0.4-0.7-0.8-1.1-1c-0.4-0.2-1-0.4-1.6-0.4c-0.7,0-1.5,0.3-2.3,0.9c-0.8,0.6-1.6,1.4-2.5,2.5V369c0,0.1,0,0.2-0.1,0.3
		c0,0.1-0.1,0.1-0.3,0.2c-0.1,0.1-0.3,0.1-0.5,0.1c-0.2,0-0.5,0-0.8,0c-0.3,0-0.6,0-0.8,0c-0.2,0-0.4-0.1-0.5-0.1
		c-0.1-0.1-0.2-0.1-0.3-0.2c0-0.1-0.1-0.2-0.1-0.3v-17.6c0-0.1,0-0.2,0.1-0.3c0-0.1,0.1-0.1,0.2-0.2c0.1-0.1,0.3-0.1,0.5-0.1
		c0.2,0,0.4,0,0.7,0c0.3,0,0.5,0,0.7,0c0.2,0,0.3,0.1,0.4,0.1c0.1,0.1,0.2,0.1,0.2,0.2c0,0.1,0.1,0.2,0.1,0.3v2.3
		c1-1.1,2-1.9,2.9-2.4c0.9-0.5,1.9-0.8,2.8-0.8c0.7,0,1.4,0.1,2,0.3c0.6,0.2,1.1,0.4,1.5,0.7c0.4,0.3,0.8,0.7,1.1,1.1
		c0.3,0.4,0.6,0.9,0.8,1.4c0.6-0.6,1.1-1.2,1.7-1.6c0.5-0.4,1-0.8,1.5-1.1c0.5-0.3,1-0.5,1.4-0.6c0.5-0.1,0.9-0.2,1.4-0.2
		c1.1,0,2.1,0.2,2.9,0.6c0.8,0.4,1.4,0.9,1.9,1.6c0.5,0.7,0.8,1.4,1,2.3c0.2,0.9,0.3,1.8,0.3,2.8V369z"/>
	<path class="st0" d="M461,369c0,0.1,0,0.2-0.1,0.3c0,0.1-0.1,0.1-0.3,0.2c-0.1,0-0.3,0.1-0.5,0.1c-0.2,0-0.5,0-0.8,0
		c-0.3,0-0.6,0-0.8,0c-0.2,0-0.4-0.1-0.5-0.1c-0.1-0.1-0.2-0.1-0.3-0.2c0-0.1-0.1-0.2-0.1-0.3v-17.6c0-0.1,0-0.2,0.1-0.3
		c0-0.1,0.1-0.1,0.3-0.2c0.1-0.1,0.3-0.1,0.5-0.1c0.2,0,0.5,0,0.8,0c0.3,0,0.6,0,0.8,0c0.2,0,0.4,0.1,0.5,0.1c0.1,0,0.2,0.1,0.3,0.2
		c0.1,0.1,0.1,0.2,0.1,0.3V369z M461.4,345.4c0,0.8-0.1,1.3-0.4,1.6c-0.3,0.3-0.8,0.4-1.6,0.4c-0.8,0-1.3-0.1-1.6-0.4
		c-0.3-0.3-0.4-0.8-0.4-1.5c0-0.8,0.1-1.3,0.4-1.5c0.3-0.3,0.8-0.4,1.6-0.4c0.8,0,1.3,0.1,1.6,0.4
		C461.3,344.1,461.4,344.6,461.4,345.4"/>
	<path class="st0" d="M480.6,369c0,0.1,0,0.2-0.1,0.3c-0.1,0.1-0.1,0.1-0.3,0.2c-0.1,0.1-0.3,0.1-0.5,0.1c-0.2,0-0.5,0-0.8,0
		c-0.3,0-0.6,0-0.8,0c-0.2,0-0.4-0.1-0.5-0.1c-0.1-0.1-0.2-0.1-0.2-0.2c-0.1-0.1-0.1-0.2-0.1-0.3v-10.3c0-1-0.1-1.8-0.2-2.4
		c-0.2-0.6-0.4-1.1-0.7-1.6c-0.3-0.4-0.7-0.8-1.2-1c-0.5-0.2-1-0.4-1.7-0.4c-0.8,0-1.6,0.3-2.4,0.9c-0.8,0.6-1.7,1.4-2.6,2.5V369
		c0,0.1,0,0.2-0.1,0.3c0,0.1-0.1,0.1-0.2,0.2c-0.1,0.1-0.3,0.1-0.5,0.1c-0.2,0-0.5,0-0.8,0c-0.3,0-0.6,0-0.8,0
		c-0.2,0-0.4-0.1-0.5-0.1c-0.1-0.1-0.2-0.1-0.3-0.2c0-0.1-0.1-0.2-0.1-0.3v-17.6c0-0.1,0-0.2,0.1-0.3c0-0.1,0.1-0.1,0.2-0.2
		c0.1-0.1,0.3-0.1,0.5-0.1c0.2,0,0.4,0,0.7,0c0.3,0,0.5,0,0.7,0c0.2,0,0.3,0.1,0.4,0.1c0.1,0.1,0.2,0.1,0.2,0.2
		c0.1,0.1,0.1,0.2,0.1,0.3v2.3c1-1.1,2-1.9,3-2.4c1-0.5,2-0.8,3-0.8c1.2,0,2.2,0.2,3,0.6c0.8,0.4,1.5,0.9,1.9,1.6
		c0.5,0.7,0.9,1.4,1.1,2.3c0.2,0.9,0.3,2,0.3,3.2V369z"/>
	<path class="st0" d="M494.6,356.8c0-1.2-0.3-2.1-1-2.8c-0.7-0.7-1.6-1-2.8-1c-0.6,0-1.2,0.1-1.6,0.3c-0.5,0.2-0.8,0.5-1.2,0.9
		c-0.3,0.4-0.5,0.8-0.7,1.3c-0.2,0.5-0.2,1-0.2,1.5c0,1.2,0.3,2.1,1,2.8c0.7,0.7,1.6,1,2.8,1c0.6,0,1.2-0.1,1.7-0.3
		c0.5-0.2,0.9-0.5,1.2-0.8c0.3-0.4,0.5-0.8,0.7-1.2C494.5,357.8,494.6,357.3,494.6,356.8 M496.2,370.8c0-0.8-0.3-1.3-0.9-1.8
		c-0.6-0.4-1.5-0.6-2.5-0.7l-4.6-0.2c-0.4,0.3-0.8,0.6-1,0.9c-0.3,0.3-0.5,0.6-0.6,0.8c-0.2,0.3-0.3,0.5-0.3,0.8
		c-0.1,0.3-0.1,0.5-0.1,0.8c0,0.8,0.4,1.5,1.3,1.9c0.9,0.4,2.1,0.7,3.6,0.7c1,0,1.8-0.1,2.5-0.3c0.7-0.2,1.2-0.4,1.6-0.8
		c0.4-0.3,0.7-0.7,0.9-1.1C496.1,371.6,496.2,371.2,496.2,370.8 M499.7,352.1c0,0.5-0.1,0.8-0.2,1c-0.1,0.2-0.3,0.3-0.5,0.3h-2.5
		c0.5,0.5,0.8,1,1,1.6c0.2,0.6,0.3,1.2,0.3,1.8c0,1-0.2,1.9-0.5,2.7c-0.3,0.8-0.8,1.4-1.4,2c-0.6,0.5-1.3,1-2.2,1.2
		c-0.8,0.3-1.8,0.4-2.8,0.4c-0.7,0-1.4-0.1-2.1-0.3c-0.6-0.2-1.2-0.4-1.5-0.7c-0.2,0.2-0.4,0.5-0.6,0.8c-0.1,0.3-0.2,0.7-0.2,1
		c0,0.5,0.2,0.8,0.6,1.1c0.4,0.3,1,0.5,1.7,0.5l4.6,0.2c0.9,0,1.7,0.1,2.4,0.4c0.7,0.2,1.4,0.5,1.9,0.9c0.5,0.4,1,0.9,1.3,1.5
		c0.3,0.6,0.5,1.3,0.5,2c0,0.8-0.2,1.6-0.5,2.3c-0.3,0.7-0.9,1.4-1.6,1.9c-0.7,0.6-1.6,1-2.7,1.3c-1.1,0.3-2.4,0.5-3.8,0.5
		c-1.4,0-2.6-0.1-3.6-0.4c-1-0.2-1.8-0.6-2.5-1c-0.6-0.4-1.1-0.9-1.4-1.5c-0.3-0.6-0.4-1.2-0.4-1.9c0-0.4,0.1-0.9,0.2-1.3
		c0.1-0.4,0.3-0.8,0.5-1.2c0.2-0.4,0.5-0.7,0.8-1.1c0.3-0.3,0.7-0.7,1.1-1c-0.6-0.3-1.1-0.7-1.4-1.2c-0.3-0.5-0.5-1-0.5-1.6
		c0-0.8,0.2-1.5,0.5-2.1c0.3-0.6,0.7-1.2,1.2-1.7c-0.4-0.5-0.7-1-1-1.6c-0.2-0.6-0.4-1.3-0.4-2.2c0-1,0.2-1.9,0.5-2.7
		c0.3-0.8,0.8-1.5,1.4-2c0.6-0.6,1.3-1,2.2-1.3c0.8-0.3,1.8-0.4,2.8-0.4c0.5,0,1,0,1.5,0.1c0.5,0.1,0.9,0.1,1.3,0.2h5.3
		c0.2,0,0.4,0.1,0.5,0.3C499.6,351.3,499.7,351.7,499.7,352.1"/>
	<path class="st0" d="M512.9,369c0,0.1,0,0.2-0.1,0.3c-0.1,0.1-0.1,0.1-0.3,0.2c-0.1,0.1-0.3,0.1-0.5,0.1c-0.2,0-0.5,0-0.8,0
		c-0.3,0-0.6,0-0.8,0c-0.2,0-0.4-0.1-0.5-0.1c-0.1-0.1-0.2-0.1-0.3-0.2c0-0.1-0.1-0.2-0.1-0.3v-26.2c0-0.1,0-0.2,0.1-0.3
		c0.1-0.1,0.1-0.1,0.3-0.2c0.1-0.1,0.3-0.1,0.5-0.1c0.2,0,0.5,0,0.8,0c0.3,0,0.6,0,0.8,0c0.2,0,0.4,0.1,0.5,0.1
		c0.1,0,0.2,0.1,0.3,0.2c0,0.1,0.1,0.2,0.1,0.3V369z"/>
	<path class="st0" d="M520.5,369c0,0.1,0,0.2-0.1,0.3c-0.1,0.1-0.1,0.1-0.3,0.2c-0.1,0-0.3,0.1-0.5,0.1c-0.2,0-0.5,0-0.8,0
		c-0.3,0-0.6,0-0.8,0c-0.2,0-0.4-0.1-0.5-0.1c-0.1-0.1-0.2-0.1-0.3-0.2c-0.1-0.1-0.1-0.2-0.1-0.3v-17.6c0-0.1,0-0.2,0.1-0.3
		c0-0.1,0.1-0.1,0.3-0.2c0.1-0.1,0.3-0.1,0.5-0.1c0.2,0,0.5,0,0.8,0c0.3,0,0.6,0,0.8,0c0.2,0,0.4,0.1,0.5,0.1c0.1,0,0.2,0.1,0.3,0.2
		c0.1,0.1,0.1,0.2,0.1,0.3V369z M520.9,345.4c0,0.8-0.1,1.3-0.4,1.6c-0.3,0.3-0.8,0.4-1.6,0.4c-0.8,0-1.3-0.1-1.6-0.4
		c-0.3-0.3-0.4-0.8-0.4-1.5c0-0.8,0.1-1.3,0.4-1.5c0.3-0.3,0.8-0.4,1.6-0.4c0.8,0,1.3,0.1,1.6,0.4
		C520.8,344.1,520.9,344.6,520.9,345.4"/>
	<path class="st0" d="M539.4,351.3c0,0,0,0.1,0,0.2c0,0.1,0,0.1,0,0.2c0,0.1,0,0.1-0.1,0.2c0,0.1,0,0.2-0.1,0.3l-6,16.8
		c-0.1,0.1-0.1,0.3-0.2,0.4c-0.1,0.1-0.2,0.2-0.4,0.2c-0.2,0.1-0.4,0.1-0.7,0.1c-0.3,0-0.6,0-1,0c-0.4,0-0.7,0-1,0
		c-0.3,0-0.5-0.1-0.6-0.1c-0.2-0.1-0.3-0.1-0.4-0.2c-0.1-0.1-0.2-0.2-0.2-0.3l-6-16.8c-0.1-0.2-0.1-0.3-0.1-0.4
		c0-0.1-0.1-0.2-0.1-0.3c0-0.1,0-0.1,0-0.1c0-0.1,0-0.2,0.1-0.3c0-0.1,0.1-0.1,0.3-0.2c0.1,0,0.3-0.1,0.5-0.1c0.2,0,0.5,0,0.8,0
		c0.4,0,0.7,0,0.9,0c0.2,0,0.4,0.1,0.5,0.1c0.1,0.1,0.2,0.1,0.3,0.2c0.1,0.1,0.1,0.2,0.2,0.3l5,14.6l0.1,0.2l0.1-0.2l4.9-14.6
		c0-0.1,0.1-0.2,0.1-0.3c0.1-0.1,0.2-0.1,0.3-0.2c0.1,0,0.3-0.1,0.5-0.1c0.2,0,0.5,0,0.9,0c0.3,0,0.6,0,0.7,0c0.2,0,0.3,0,0.5,0.1
		c0.1,0.1,0.2,0.1,0.2,0.2C539.4,351.1,539.4,351.2,539.4,351.3"/>
	<path class="st0" d="M552.9,358.4c0-1.7-0.3-3-1.1-4c-0.8-1-2-1.5-3.5-1.5c-0.8,0-1.5,0.2-2.1,0.5c-0.6,0.3-1.1,0.7-1.5,1.2
		c-0.4,0.5-0.7,1.1-1,1.7c-0.2,0.7-0.3,1.3-0.4,2.1H552.9z M556.1,359.4c0,0.5-0.1,0.9-0.4,1.1c-0.3,0.2-0.6,0.3-0.9,0.3h-11.6
		c0,1,0.1,1.9,0.3,2.6c0.2,0.8,0.5,1.5,1,2c0.5,0.6,1.1,1,1.8,1.3c0.7,0.3,1.6,0.4,2.7,0.4c0.8,0,1.6-0.1,2.2-0.2
		c0.7-0.1,1.2-0.3,1.7-0.5c0.5-0.2,0.9-0.3,1.2-0.5c0.3-0.1,0.5-0.2,0.7-0.2c0.1,0,0.2,0,0.2,0.1c0.1,0,0.1,0.1,0.2,0.2
		c0,0.1,0.1,0.2,0.1,0.4c0,0.2,0,0.4,0,0.6c0,0.2,0,0.3,0,0.4c0,0.1,0,0.2-0.1,0.3c0,0.1-0.1,0.2-0.1,0.3c0,0.1-0.1,0.2-0.2,0.2
		c-0.1,0.1-0.3,0.2-0.6,0.4c-0.4,0.2-0.8,0.3-1.4,0.5c-0.6,0.2-1.2,0.3-1.9,0.4c-0.7,0.1-1.5,0.2-2.4,0.2c-1.5,0-2.7-0.2-3.8-0.6
		c-1.1-0.4-2-1-2.8-1.8c-0.8-0.8-1.3-1.8-1.7-3c-0.4-1.2-0.6-2.6-0.6-4.2c0-1.5,0.2-2.9,0.6-4.1c0.4-1.2,1-2.2,1.7-3.1
		c0.7-0.8,1.6-1.5,2.7-1.9c1-0.5,2.2-0.7,3.5-0.7c1.4,0,2.6,0.2,3.5,0.7c1,0.4,1.8,1,2.4,1.8c0.6,0.7,1.1,1.6,1.4,2.7
		c0.3,1,0.4,2.1,0.4,3.2V359.4z"/>
	<path class="st0" d="M570.5,364.2c0,0.9-0.2,1.7-0.5,2.4c-0.3,0.7-0.8,1.3-1.4,1.8c-0.6,0.5-1.3,0.9-2.2,1.1
		c-0.8,0.2-1.8,0.4-2.8,0.4c-0.6,0-1.2,0-1.8-0.1c-0.6-0.1-1.1-0.2-1.5-0.4c-0.5-0.2-0.8-0.3-1.2-0.5c-0.3-0.2-0.5-0.3-0.7-0.5
		c-0.1-0.1-0.2-0.3-0.3-0.5c-0.1-0.2-0.1-0.6-0.1-1c0-0.2,0-0.5,0-0.6c0-0.2,0.1-0.3,0.1-0.4c0-0.1,0.1-0.2,0.2-0.2
		c0.1,0,0.1-0.1,0.2-0.1c0.1,0,0.4,0.1,0.6,0.3c0.3,0.2,0.6,0.4,1,0.6c0.4,0.2,0.9,0.4,1.5,0.6c0.6,0.2,1.2,0.3,1.9,0.3
		c0.6,0,1-0.1,1.5-0.2c0.4-0.1,0.8-0.3,1.2-0.5c0.3-0.2,0.6-0.5,0.8-0.9c0.2-0.4,0.3-0.8,0.3-1.3c0-0.5-0.1-0.9-0.4-1.2
		c-0.3-0.3-0.6-0.6-1-0.9c-0.4-0.3-0.9-0.5-1.4-0.7c-0.5-0.2-1.1-0.4-1.6-0.6c-0.5-0.2-1.1-0.5-1.6-0.8c-0.5-0.3-1-0.6-1.4-1
		c-0.4-0.4-0.8-0.9-1-1.4c-0.2-0.6-0.4-1.2-0.4-2c0-0.7,0.1-1.4,0.4-2c0.3-0.6,0.7-1.2,1.2-1.7c0.5-0.5,1.2-0.9,2-1.1
		c0.8-0.3,1.7-0.4,2.8-0.4c0.5,0,0.9,0,1.4,0.1c0.5,0.1,0.9,0.2,1.3,0.3c0.4,0.1,0.7,0.2,1,0.4c0.3,0.1,0.5,0.3,0.6,0.4
		c0.1,0.1,0.2,0.2,0.3,0.3c0.1,0.1,0.1,0.2,0.1,0.3c0,0.1,0,0.2,0.1,0.4c0,0.2,0,0.3,0,0.5c0,0.2,0,0.4,0,0.6c0,0.2-0.1,0.3-0.1,0.4
		c-0.1,0.1-0.1,0.2-0.2,0.2c-0.1,0-0.1,0.1-0.2,0.1c-0.1,0-0.3-0.1-0.5-0.2c-0.2-0.1-0.5-0.3-0.9-0.5c-0.4-0.2-0.8-0.3-1.2-0.5
		c-0.5-0.1-1-0.2-1.6-0.2c-0.5,0-1,0.1-1.4,0.2c-0.4,0.1-0.8,0.3-1,0.5c-0.3,0.2-0.5,0.5-0.6,0.8c-0.1,0.3-0.2,0.7-0.2,1
		c0,0.5,0.1,0.9,0.4,1.3c0.3,0.4,0.6,0.7,1,0.9c0.4,0.3,0.9,0.5,1.4,0.7c0.5,0.2,1.1,0.4,1.6,0.6c0.6,0.2,1.1,0.5,1.6,0.7
		c0.5,0.3,1,0.6,1.4,1c0.4,0.4,0.8,0.9,1,1.4C570.4,362.7,570.5,363.4,570.5,364.2"/>
</g>
<g>
	<defs>
		<polygon id="SVGID_1_" points="594.5,327.2 594.5,370.7 620.1,327.2 		"/>
	</defs>
	<clipPath id="SVGID_2_">
		<use xlink:href="#SVGID_1_"  style="overflow:visible;"/>
	</clipPath>
	
		<linearGradient id="SVGID_3_" gradientUnits="userSpaceOnUse" x1="-12.1489" y1="775.6934" x2="-9.7004" y2="775.6934" gradientTransform="matrix(0 -17.7988 17.7988 0 -13199.082 154.5074)">
		<stop  offset="0" style="stop-color:#FBC600"/>
		<stop  offset="0.1947" style="stop-color:#E8AD06"/>
		<stop  offset="0.5492" style="stop-color:#CA840E"/>
		<stop  offset="0.8299" style="stop-color:#B86B14"/>
		<stop  offset="1" style="stop-color:#B16216"/>
	</linearGradient>
	<rect x="594.5" y="327.2" class="st1" width="25.6" height="43.6"/>
</g>
<g>
	<defs>
		<polygon id="SVGID_4_" points="594.5,327.2 620.1,327.2 620.2,327.1 594.5,283.6 		"/>
	</defs>
	<clipPath id="SVGID_5_">
		<use xlink:href="#SVGID_4_"  style="overflow:visible;"/>
	</clipPath>
	
		<linearGradient id="SVGID_6_" gradientUnits="userSpaceOnUse" x1="-10.7012" y1="775.6939" x2="-8.2527" y2="775.6939" gradientTransform="matrix(0 -17.798 17.798 0 -13198.4492 136.702)">
		<stop  offset="0" style="stop-color:#FBC600"/>
		<stop  offset="6.213629e-002" style="stop-color:#F7BF03"/>
		<stop  offset="0.479" style="stop-color:#DF9512"/>
		<stop  offset="0.8057" style="stop-color:#D07B1B"/>
		<stop  offset="1" style="stop-color:#CA711F"/>
	</linearGradient>
	<rect x="594.5" y="283.6" class="st2" width="25.6" height="43.6"/>
</g>
<g>
	<path class="st3" d="M120.6,369.2H99.9v-4.3c-12.6-1.3-21.4-9.5-21.4-20.2c0-10.8,7.9-20.2,21.4-21.5v-5.8
		c-15.3,1.5-24.9,11-27,22.5v-70.6h47.7V369.2z M60.6,338.9c-2-12.1-11.7-20.6-28.4-21.3v-48.4h28.4V338.9z M72.9,348.9
		c1.8,9.8,9.6,17.6,20.6,20.3H72.9V348.9z M60.6,348.4v20.7H37.7C50.3,366.9,58.8,359.1,60.6,348.4 M32.3,323.5
		c15.7,0,22.8,8.8,22.8,20.5c0,11.7-8.3,20.4-22.8,20.4V323.5z M122,268.1H20.2v102.2H122V268.1z"/>
	<path class="st3" d="M173.7,316.3c0-1.1-0.2-2-0.5-2.8c-0.3-0.8-0.9-1.5-1.5-2.1c-0.7-0.6-1.5-1-2.6-1.3c-1-0.3-2.4-0.5-4.1-0.5
		h-5.5v12.9h6.6c1.3,0,2.4-0.1,3.2-0.4c0.9-0.3,1.6-0.7,2.3-1.2c0.6-0.5,1.1-1.2,1.5-2C173.5,318.2,173.7,317.3,173.7,316.3
		 M171.3,296.9c0-0.9-0.1-1.7-0.4-2.4c-0.3-0.7-0.7-1.3-1.3-1.8c-0.6-0.5-1.3-0.8-2.1-1.1c-0.9-0.3-2-0.4-3.4-0.4h-4.6V303h5.1
		c1.3,0,2.4-0.2,3.2-0.5c0.8-0.3,1.4-0.7,2-1.3c0.5-0.5,0.9-1.2,1.2-1.9C171.2,298.5,171.3,297.8,171.3,296.9 M183.2,316
		c0,1.6-0.2,3.1-0.7,4.4c-0.4,1.3-1.1,2.5-1.8,3.5c-0.8,1-1.7,1.9-2.8,2.6c-1.1,0.7-2.3,1.3-3.6,1.8c-1.3,0.5-2.7,0.8-4.2,1
		c-1.5,0.2-3.1,0.3-4.9,0.3h-12c-0.8,0-1.4-0.2-1.9-0.7c-0.5-0.5-0.8-1.2-0.8-2.2v-39.5c0-1,0.3-1.8,0.8-2.2
		c0.5-0.5,1.2-0.7,1.9-0.7h11.4c2.8,0,5.1,0.2,7,0.7c1.9,0.5,3.5,1.2,4.9,2.1c1.3,0.9,2.3,2.1,3,3.6c0.7,1.4,1,3.1,1,5.1
		c0,1.1-0.1,2.1-0.4,3.1c-0.3,1-0.7,1.8-1.2,2.6c-0.5,0.8-1.2,1.5-2,2.1c-0.8,0.6-1.7,1.1-2.7,1.5c1.3,0.2,2.5,0.6,3.5,1.2
		c1.1,0.6,2,1.3,2.8,2.3c0.8,0.9,1.4,2,1.9,3.2C183,313.1,183.2,314.5,183.2,316"/>
	<path class="st3" d="M222.9,328.2c0,0.3-0.1,0.5-0.2,0.7c-0.1,0.2-0.4,0.4-0.7,0.5c-0.4,0.1-0.9,0.2-1.5,0.3
		c-0.6,0.1-1.4,0.1-2.4,0.1c-1.5,0-2.6-0.1-3.3-0.2c-0.7-0.1-1.1-0.3-1.4-0.5c-0.3-0.2-0.5-0.5-0.7-0.8L199,306.8v21.5
		c0,0.3-0.1,0.5-0.2,0.7c-0.1,0.2-0.4,0.3-0.7,0.5c-0.4,0.1-0.8,0.2-1.4,0.3c-0.6,0.1-1.3,0.1-2.2,0.1c-0.9,0-1.6,0-2.2-0.1
		c-0.6-0.1-1.1-0.2-1.4-0.3c-0.4-0.1-0.6-0.3-0.8-0.5c-0.2-0.2-0.2-0.4-0.2-0.7v-42.6c0-0.3,0.1-0.5,0.2-0.7
		c0.1-0.2,0.4-0.3,0.8-0.5c0.3-0.1,0.8-0.2,1.4-0.3c0.6-0.1,1.3-0.1,2.2-0.1c0.9,0,1.7,0,2.2,0.1c0.6,0.1,1,0.2,1.4,0.3
		c0.3,0.1,0.6,0.3,0.7,0.5c0.1,0.2,0.2,0.4,0.2,0.7v19.3l13.2-19.2c0.2-0.3,0.4-0.6,0.6-0.8c0.2-0.2,0.5-0.4,0.9-0.5
		c0.4-0.1,0.9-0.2,1.4-0.2c0.6,0,1.3-0.1,2.2-0.1c0.9,0,1.7,0,2.3,0.1c0.6,0.1,1.1,0.2,1.4,0.3c0.4,0.1,0.6,0.3,0.7,0.5
		c0.1,0.2,0.2,0.4,0.2,0.6c0,0.4-0.1,0.8-0.3,1.2c-0.2,0.4-0.6,1.1-1.2,2l-12.4,16.3l13.5,20.5c0.5,1,0.8,1.6,0.9,1.9
		C222.8,327.8,222.9,328,222.9,328.2"/>
	<path class="st3" d="M280,291.3c0,0.7,0,1.3-0.1,1.8c-0.1,0.5-0.1,0.9-0.2,1.2c-0.1,0.3-0.2,0.5-0.4,0.6c-0.2,0.1-0.3,0.2-0.5,0.2
		c-0.3,0-0.8-0.2-1.5-0.6c-0.7-0.4-1.6-0.9-2.7-1.4c-1.1-0.5-2.5-0.9-4-1.4c-1.5-0.4-3.3-0.6-5.4-0.6c-2.2,0-4.2,0.4-5.9,1.1
		c-1.8,0.8-3.3,1.8-4.5,3.2c-1.3,1.4-2.2,3.1-2.9,5c-0.7,1.9-1,4.1-1,6.5c0,2.6,0.3,4.9,1,6.8c0.7,2,1.6,3.6,2.9,4.9
		c1.2,1.3,2.7,2.3,4.5,3c1.7,0.7,3.7,1,5.7,1c1,0,2-0.1,3-0.3c1-0.2,1.9-0.6,2.8-1.1v-10.5h-8.6c-0.4,0-0.7-0.3-1-0.8
		c-0.2-0.5-0.4-1.4-0.4-2.7c0-0.7,0-1.2,0.1-1.6c0.1-0.4,0.1-0.8,0.3-1.1c0.1-0.3,0.3-0.5,0.4-0.6c0.2-0.1,0.4-0.2,0.6-0.2h15.3
		c0.4,0,0.7,0.1,1,0.2c0.3,0.1,0.5,0.3,0.8,0.6c0.2,0.3,0.4,0.6,0.5,0.9c0.1,0.4,0.2,0.8,0.2,1.2v18c0,0.7-0.1,1.3-0.4,1.8
		c-0.2,0.5-0.7,0.9-1.5,1.2c-0.8,0.3-1.7,0.6-2.8,0.9c-1.1,0.3-2.3,0.6-3.5,0.8c-1.2,0.2-2.4,0.4-3.6,0.5c-1.2,0.1-2.5,0.2-3.7,0.2
		c-3.6,0-6.8-0.5-9.7-1.6c-2.9-1-5.3-2.5-7.2-4.5c-2-2-3.5-4.4-4.5-7.2c-1.1-2.8-1.6-6-1.6-9.6c0-3.7,0.6-7,1.7-10
		c1.1-2.9,2.7-5.5,4.8-7.5c2-2.1,4.5-3.6,7.4-4.7c2.9-1.1,6.1-1.6,9.7-1.6c2,0,3.7,0.1,5.3,0.4c1.6,0.3,3,0.6,4.2,1
		c1.2,0.4,2.2,0.8,3,1.2c0.8,0.4,1.3,0.8,1.7,1.2c0.3,0.3,0.5,0.8,0.7,1.4C279.9,289.3,280,290.2,280,291.3"/>
	<path class="st3" d="M310.3,297.7c0-1.5-0.3-2.8-1-3.8c-0.7-1-1.8-1.7-3.3-2.2c-0.5-0.1-1-0.2-1.6-0.3c-0.6-0.1-1.4-0.1-2.5-0.1
		h-4.1v12.8h4.7c1.3,0,2.4-0.2,3.4-0.5c1-0.3,1.8-0.8,2.4-1.3c0.7-0.6,1.1-1.3,1.5-2C310.1,299.5,310.3,298.7,310.3,297.7
		 M322.1,328.4c0,0.3,0,0.5-0.1,0.6c-0.1,0.2-0.3,0.3-0.7,0.4c-0.3,0.1-0.9,0.2-1.5,0.2c-0.7,0-1.6,0.1-2.8,0.1c-1,0-1.8,0-2.3-0.1
		c-0.6,0-1-0.1-1.4-0.3c-0.3-0.1-0.6-0.3-0.7-0.5c-0.1-0.2-0.3-0.4-0.3-0.7l-4.1-10.1c-0.5-1.1-1-2.2-1.4-3c-0.5-0.9-1-1.6-1.6-2.2
		c-0.6-0.6-1.2-1-2-1.3c-0.7-0.3-1.6-0.5-2.6-0.5h-2.9v17.2c0,0.2-0.1,0.4-0.2,0.6c-0.2,0.2-0.4,0.3-0.8,0.5
		c-0.3,0.1-0.8,0.2-1.4,0.3c-0.6,0.1-1.3,0.1-2.2,0.1c-0.9,0-1.6,0-2.2-0.1c-0.6-0.1-1.1-0.2-1.4-0.3c-0.4-0.1-0.6-0.3-0.7-0.5
		c-0.1-0.2-0.2-0.4-0.2-0.6v-41.1c0-1,0.3-1.8,0.8-2.2c0.5-0.5,1.2-0.7,1.9-0.7H303c1.2,0,2.2,0,2.9,0.1c0.8,0,1.5,0.1,2.1,0.2
		c1.8,0.3,3.5,0.7,4.9,1.3c1.5,0.6,2.7,1.5,3.7,2.5c1,1,1.8,2.2,2.3,3.6c0.5,1.4,0.8,3,0.8,4.8c0,1.5-0.2,2.9-0.6,4.1
		c-0.4,1.2-1,2.4-1.7,3.3c-0.7,1-1.7,1.8-2.8,2.6c-1.1,0.7-2.3,1.3-3.7,1.7c0.7,0.3,1.3,0.7,1.9,1.2c0.6,0.5,1.2,1,1.7,1.7
		c0.5,0.7,1,1.4,1.5,2.3c0.5,0.8,0.9,1.8,1.4,2.9l3.8,8.9c0.3,0.9,0.6,1.5,0.7,1.9C322,327.8,322.1,328.2,322.1,328.4"/>
	<path class="st3" d="M358.5,306.9c0-2.4-0.2-4.5-0.6-6.5c-0.4-1.9-1-3.6-1.9-5c-0.9-1.4-2.1-2.5-3.6-3.2c-1.5-0.8-3.4-1.1-5.6-1.1
		c-2.3,0-4.1,0.4-5.7,1.3c-1.5,0.9-2.7,2-3.7,3.4c-0.9,1.4-1.6,3.1-2,5c-0.4,1.9-0.6,3.9-0.6,6c0,2.5,0.2,4.7,0.6,6.7
		c0.4,2,1,3.7,1.9,5.1c0.9,1.4,2.1,2.5,3.6,3.2c1.5,0.7,3.4,1.1,5.6,1.1c2.3,0,4.1-0.4,5.7-1.3c1.5-0.8,2.7-2,3.7-3.4
		c0.9-1.4,1.6-3.1,2-5.1C358.3,311.1,358.5,309.1,358.5,306.9 M368.1,306.4c0,3.8-0.5,7.1-1.4,10.1c-0.9,3-2.3,5.5-4.2,7.5
		c-1.8,2.1-4.1,3.6-6.8,4.7c-2.7,1.1-5.9,1.6-9.4,1.6c-3.5,0-6.6-0.5-9.2-1.4c-2.6-0.9-4.8-2.3-6.5-4.2c-1.7-1.9-3.1-4.3-3.9-7.2
		c-0.9-2.9-1.3-6.4-1.3-10.4c0-3.7,0.5-7,1.4-9.9c0.9-2.9,2.3-5.4,4.2-7.5c1.8-2.1,4.1-3.6,6.8-4.7c2.7-1.1,5.9-1.6,9.4-1.6
		c3.4,0,6.4,0.5,9.1,1.4c2.6,0.9,4.8,2.3,6.6,4.2c1.8,1.9,3.1,4.3,4,7.2C367.6,299.1,368.1,302.5,368.1,306.4"/>
	<path class="st3" d="M412,312.7c0,2.8-0.4,5.3-1.2,7.5c-0.8,2.2-2,4-3.6,5.6c-1.6,1.5-3.5,2.7-5.9,3.5c-2.3,0.8-5,1.2-8,1.2
		c-2.8,0-5.4-0.4-7.6-1.1c-2.3-0.7-4.2-1.8-5.7-3.2c-1.6-1.4-2.8-3.2-3.6-5.4c-0.8-2.2-1.2-4.7-1.2-7.6v-27.5c0-0.2,0.1-0.4,0.2-0.6
		c0.1-0.2,0.4-0.3,0.8-0.5c0.4-0.1,0.8-0.2,1.4-0.3c0.6-0.1,1.3-0.1,2.2-0.1c0.9,0,1.6,0,2.2,0.1c0.6,0.1,1.1,0.2,1.4,0.3
		c0.4,0.1,0.6,0.3,0.8,0.5c0.1,0.2,0.2,0.4,0.2,0.6v26.7c0,1.8,0.2,3.4,0.7,4.7c0.4,1.3,1.1,2.4,1.9,3.3c0.8,0.9,1.8,1.5,3,1.9
		c1.2,0.4,2.4,0.6,3.9,0.6c1.4,0,2.7-0.2,3.9-0.7c1.1-0.4,2.1-1.1,2.9-1.9c0.8-0.8,1.4-1.9,1.8-3.1c0.4-1.2,0.6-2.7,0.6-4.2v-27.3
		c0-0.2,0.1-0.4,0.2-0.6c0.1-0.2,0.4-0.3,0.7-0.5c0.4-0.1,0.8-0.2,1.4-0.3c0.6-0.1,1.3-0.1,2.2-0.1c0.9,0,1.6,0,2.2,0.1
		c0.6,0.1,1,0.2,1.4,0.3c0.4,0.1,0.6,0.3,0.7,0.5c0.1,0.2,0.2,0.4,0.2,0.6V312.7z"/>
	<path class="st3" d="M442.4,298.7c0-1.6-0.3-2.9-0.8-3.9c-0.6-1-1.2-1.8-2.1-2.3c-0.8-0.5-1.7-0.8-2.6-0.9
		c-0.9-0.1-1.8-0.2-2.8-0.2h-3.9v15.4h4.1c1.5,0,2.7-0.2,3.7-0.6c1-0.4,1.8-1,2.4-1.7c0.6-0.7,1.1-1.6,1.4-2.5
		C442.3,301,442.4,299.9,442.4,298.7 M452,298.1c0,2.5-0.4,4.8-1.2,6.8c-0.8,2-1.9,3.6-3.5,5c-1.5,1.3-3.4,2.4-5.6,3.1
		c-2.2,0.7-4.8,1-7.8,1h-3.8v14.4c0,0.2-0.1,0.4-0.2,0.6c-0.2,0.2-0.4,0.3-0.7,0.5c-0.4,0.1-0.8,0.2-1.4,0.3
		c-0.6,0.1-1.3,0.1-2.2,0.1c-0.9,0-1.6,0-2.2-0.1c-0.6-0.1-1.1-0.2-1.4-0.3c-0.3-0.1-0.6-0.3-0.7-0.5c-0.1-0.2-0.2-0.4-0.2-0.6
		v-40.7c0-1.1,0.3-1.9,0.9-2.5c0.6-0.5,1.3-0.8,2.3-0.8h10.7c1.1,0,2.1,0,3.1,0.1c1,0.1,2.1,0.3,3.5,0.5c1.4,0.3,2.7,0.8,4.1,1.5
		c1.4,0.7,2.6,1.6,3.5,2.7c1,1.1,1.7,2.4,2.2,3.9C451.8,294.6,452,296.2,452,298.1"/>
	<path class="st3" d="M495.2,298.7c0-1.6-0.3-2.9-0.8-3.9c-0.6-1-1.2-1.8-2.1-2.3c-0.8-0.5-1.7-0.8-2.6-0.9
		c-0.9-0.1-1.8-0.2-2.8-0.2h-3.9v15.4h4.1c1.5,0,2.7-0.2,3.7-0.6c1-0.4,1.8-1,2.4-1.7c0.6-0.7,1.1-1.6,1.4-2.5
		C495.1,301,495.2,299.9,495.2,298.7 M504.8,298.1c0,2.5-0.4,4.8-1.2,6.8c-0.8,2-1.9,3.6-3.5,5c-1.5,1.3-3.4,2.4-5.6,3.1
		c-2.2,0.7-4.8,1-7.8,1h-3.8v14.4c0,0.2-0.1,0.4-0.2,0.6c-0.2,0.2-0.4,0.3-0.7,0.5c-0.4,0.1-0.8,0.2-1.4,0.3
		c-0.6,0.1-1.3,0.1-2.2,0.1c-0.9,0-1.6,0-2.2-0.1c-0.6-0.1-1.1-0.2-1.4-0.3c-0.3-0.1-0.6-0.3-0.7-0.5c-0.1-0.2-0.2-0.4-0.2-0.6
		v-40.7c0-1.1,0.3-1.9,0.9-2.5c0.6-0.5,1.3-0.8,2.3-0.8h10.7c1.1,0,2.1,0,3.1,0.1c1,0.1,2.1,0.3,3.5,0.5c1.4,0.3,2.7,0.8,4.1,1.5
		c1.4,0.7,2.6,1.6,3.5,2.7c1,1.1,1.7,2.4,2.2,3.9C504.6,294.6,504.8,296.2,504.8,298.1"/>
	<path class="st3" d="M536.1,325.7c0,0.7,0,1.3-0.1,1.8c-0.1,0.5-0.1,0.9-0.3,1.2c-0.1,0.3-0.3,0.5-0.4,0.7
		c-0.2,0.1-0.4,0.2-0.6,0.2H514c-0.8,0-1.4-0.2-1.9-0.7c-0.5-0.5-0.8-1.2-0.8-2.2v-41.1c0-0.2,0.1-0.4,0.2-0.6
		c0.1-0.2,0.4-0.3,0.8-0.5c0.3-0.1,0.8-0.2,1.4-0.3c0.6-0.1,1.3-0.1,2.2-0.1c0.9,0,1.7,0,2.2,0.1c0.6,0.1,1,0.2,1.4,0.3
		c0.3,0.1,0.6,0.3,0.8,0.5c0.1,0.2,0.2,0.4,0.2,0.6V322h14.2c0.2,0,0.4,0.1,0.6,0.2c0.2,0.1,0.3,0.3,0.4,0.6
		c0.1,0.3,0.2,0.7,0.3,1.2C536.1,324.4,536.1,325,536.1,325.7"/>
	<path class="st3" d="M571.2,322.7c0,0.6,0,1.1-0.1,1.5c0,0.4-0.1,0.8-0.2,1.1c-0.1,0.3-0.2,0.5-0.3,0.7c-0.1,0.2-0.3,0.4-0.6,0.7
		c-0.3,0.3-0.8,0.6-1.5,1c-0.7,0.4-1.6,0.8-2.7,1.2c-1.1,0.4-2.3,0.7-3.6,1c-1.4,0.3-2.8,0.4-4.4,0.4c-3.1,0-5.9-0.5-8.4-1.4
		c-2.5-1-4.6-2.4-6.4-4.3c-1.7-1.9-3.1-4.3-4-7.1c-0.9-2.9-1.4-6.2-1.4-9.9c0-3.8,0.5-7.3,1.5-10.2c1-3,2.5-5.5,4.3-7.5
		c1.8-2,4-3.6,6.6-4.6c2.6-1,5.4-1.6,8.5-1.6c1.3,0,2.5,0.1,3.6,0.3c1.2,0.2,2.2,0.5,3.2,0.8c1,0.3,1.9,0.7,2.7,1.2
		c0.8,0.4,1.3,0.8,1.7,1.1c0.3,0.3,0.5,0.6,0.6,0.8c0.1,0.2,0.2,0.5,0.3,0.8c0.1,0.3,0.1,0.7,0.2,1.2c0,0.4,0.1,1,0.1,1.6
		c0,0.7,0,1.3-0.1,1.8c0,0.5-0.1,0.9-0.2,1.2c-0.1,0.3-0.3,0.5-0.4,0.7c-0.2,0.1-0.3,0.2-0.6,0.2c-0.3,0-0.8-0.2-1.3-0.6
		c-0.5-0.4-1.2-0.9-2.1-1.4c-0.8-0.5-1.9-1-3-1.4c-1.2-0.4-2.6-0.6-4.2-0.6c-1.8,0-3.4,0.4-4.8,1.1c-1.4,0.7-2.6,1.8-3.6,3.1
		c-1,1.4-1.7,3-2.3,5c-0.5,1.9-0.8,4.1-0.8,6.5c0,2.7,0.3,5,0.8,6.9c0.5,1.9,1.3,3.5,2.3,4.8c1,1.3,2.2,2.2,3.7,2.8
		c1.4,0.6,3,0.9,4.8,0.9c1.6,0,3-0.2,4.2-0.6c1.2-0.4,2.2-0.8,3.1-1.3c0.8-0.5,1.5-0.9,2.1-1.3c0.5-0.4,1-0.6,1.3-0.6
		c0.2,0,0.4,0,0.6,0.1c0.1,0.1,0.3,0.3,0.3,0.6c0.1,0.3,0.2,0.7,0.2,1.2C571.2,321.2,571.2,321.9,571.2,322.7"/>
</g>
</svg>
