<?xml version="1.0" encoding="utf-8"?>
<!-- Generator: Adobe Illustrator 23.0.3, SVG Export Plug-In . SVG Version: 6.00 Build 0)  -->
<svg version="1.1" id="Layer_1" xmlns="http://www.w3.org/2000/svg" xmlns:xlink="http://www.w3.org/1999/xlink" x="0px" y="0px"
	 viewBox="0 0 636 388" style="enable-background:new 0 0 636 388;" xml:space="preserve">
<style type="text/css">
	.st0{fill-rule:evenodd;clip-rule:evenodd;fill:#0063CF;}
	.st1{fill:#5A606B;}
</style>
<title>Logo</title>
<desc>Created with Sketch.</desc>
<g id="Group-Copy-8" transform="translate(191.000000, 161.000000)">
	<g id="logo" transform="translate(0.000000, 4.000000)">
		<g id="O" transform="translate(131.000000, 14.000000)">
			<path id="_x32_" class="st0" d="M25.5,5.5c-2-2.6-4.8-4.5-8-5.4l-0.1,0h-0.1c0,0-0.1,0-0.1,0c-0.1,0-0.2,0-0.3,0
				c-1.1,0-2.2,0.8-2.5,1.9v0c-0.4,1.3,0.4,2.7,1.8,3.2l0,0c4.4,1.2,7.4,5.2,7.4,9.7c0,5.5-4.6,10-10.2,10c-2.7,0-5.3-1.1-7.2-3
				C5.6,21.3,5,21,4.3,21c-0.7,0-1.3,0.3-1.8,0.7c-0.5,0.5-0.8,1.1-0.8,1.8c0,0.7,0.3,1.3,0.8,1.8c2.9,2.9,6.8,4.5,10.9,4.5
				c8.5,0,15.4-6.8,15.4-15.2C28.7,11.4,27.6,8.2,25.5,5.5z"/>
			<path id="_x31_" class="st0" d="M4.8,9.3C6.2,7.2,8.3,5.7,10.7,5c0.7-0.2,1.2-0.6,1.6-1.2c0.4-0.6,0.4-1.3,0.3-1.9l0,0
				C12.1,0.8,11.1,0,10,0C9.8,0,9.6,0,9.3,0.1l0,0c-3.6,1-6.8,3.2-8.8,6.4C0.1,7,0,7.7,0.1,8.4C0.3,9.1,0.7,9.6,1.2,10
				c0.4,0.3,0.9,0.4,1.4,0.4C3.5,10.4,4.4,10,4.8,9.3z"/>
		</g>
		<path id="b" class="st0" d="M116.7,13.2h-6.3c-1.4,0-2.6,1.1-2.6,2.5s1.2,2.5,2.6,2.5h6.3c2.3,0,4.2,1.8,4.2,4.1v11.5
			c0,2.2-1.9,4.1-4.2,4.1h-6.3c-2.3,0-4.2-1.8-4.2-4.1l0-31.4v0c0-1.4-1.2-2.5-2.6-2.5c-1.4,0-2.6,1.1-2.6,2.5l0,31.4
			c0,5,4.2,9.1,9.3,9.1h6.3c5.1,0,9.3-4.1,9.3-9.1V22.4C126,17.3,121.8,13.2,116.7,13.2z"/>
		<path id="m" class="st0" d="M87,13c-2.5,0-4.8,1-6.5,2.7C78.8,14,76.5,13,74,13c-5,0-9,4-9,9l0,18.5c0,1.4,1.1,2.5,2.5,2.5
			s2.5-1.1,2.5-2.5l0-18.5c0-2.2,1.8-3.9,3.9-3.9c2.2,0,3.9,1.8,3.9,3.9l0,18.5c0,1.4,1.1,2.5,2.5,2.5c1.4,0,2.5-1.1,2.5-2.5L83,22
			c0-2.2,1.8-3.9,3.9-3.9s3.9,1.8,3.9,3.9l0,18.5c0,1.4,1.1,2.5,2.5,2.5c1.4,0,2.5-1.1,2.5-2.5L96,22C96,17,91.9,13,87,13z"/>
		<path id="e" class="st0" d="M50.2,13h-5.9c-5.1,0-9.3,4.1-9.3,9.2v11.6c0,5.1,4.2,9.2,9.3,9.2h5.9c1.4,0,2.6-1.1,2.6-2.5
			s-1.1-2.5-2.6-2.5h-5.9c-2.3,0-4.2-1.8-4.2-4.1V22.2c0-2.3,1.9-4.1,4.2-4.1h5.9c2,0,3.7,1.7,3.7,3.7c0,2-1.7,3.7-3.7,3.7h-6
			c-1.4,0-2.6,1.1-2.6,2.5c0,1.4,1.1,2.5,2.6,2.5h6c4.9,0,8.8-3.9,8.8-8.8S55,13,50.2,13z"/>
		<path id="r" class="st0" d="M29.4,13h-5.6v0.1C20,13.5,17,16.7,17,20.5l0,19.9c0,1.4,1.2,2.5,2.6,2.5s2.6-1.1,2.6-2.5l0-19.9
			c0-1.4,1.1-2.5,2.5-2.5h4.7c1.4,0,2.6-1.1,2.6-2.5C32,14.1,30.8,13,29.4,13z"/>
		<g id="i" transform="translate(0.000000, 3.000000)">
			<path id="_x32__1_" class="st0" d="M8.7,33.4c-2.2-2.2-3.4-5.2-3.4-8.2l0-12.4v0c0-1.4-1.2-2.5-2.6-2.5c-1.4,0-2.6,1.1-2.6,2.5
				l0,12.4c0,4.4,1.7,8.5,4.9,11.7l2.2,2.2c0.5,0.5,1.2,0.8,1.9,0.8c0.7,0,1.3-0.2,1.8-0.7l0,0c0.5-0.5,0.8-1.1,0.8-1.8
				c0-0.7-0.2-1.3-0.7-1.7L8.7,33.4z"/>
			<path id="_x31__1_" class="st0" d="M2.9,5.5c1.5,0,2.8-1.2,2.8-2.7S4.4,0.1,2.9,0.1S0,1.3,0,2.8S1.3,5.5,2.9,5.5z"/>
		</g>
	</g>
	<path id="Gov" class="st1" d="M185.4,31.1h14.3V48h-1.5v-7.8c-1.8,4.6-6.3,8-12.7,8c-8.9,0-15.1-6.4-15.1-17.2
		c0-10.4,6.3-17.2,15.6-17.2c8.3,0,12.8,4.8,13.5,11.4h-1.8c-0.6-5.5-4.4-9.8-11.7-9.8c-8.2,0-13.8,6.1-13.8,15.6
		c0,9.9,5.5,15.5,13.2,15.5c7.6,0,12.6-5.2,12.7-11.2v-2.5h-12.7V31.1z M217.1,23.6c6.8,0,11.2,4.9,11.2,12.3
		c0,7.3-4.5,12.3-11.2,12.3s-11.3-4.9-11.3-12.2C205.8,28.6,210.4,23.6,217.1,23.6z M217.1,25.2c-5.7,0-9.5,4.3-9.5,10.7
		s3.8,10.7,9.5,10.7c5.6,0,9.4-4.3,9.4-10.7S222.8,25.2,217.1,25.2z M251.3,23.8h1.8L243.6,48h-2.2l-9.6-24.1h2l8.4,21.4
		c0.2,0.3,0.2,0.6,0.4,1h0.1c0-0.3,0.1-0.7,0.2-1L251.3,23.8z"/>
</g>
</svg>
