<?xml version="1.0" standalone="no"?>
<!DOCTYPE svg PUBLIC "-//W3C//DTD SVG 20010904//EN"
 "http://www.w3.org/TR/2001/REC-SVG-20010904/DTD/svg10.dtd">
<svg version="1.0" xmlns="http://www.w3.org/2000/svg"
 width="640.000000pt" height="137.000000pt" viewBox="0 0 640.000000 137.000000"
 preserveAspectRatio="xMidYMid meet">

<g transform="translate(0.000000,137.000000) scale(0.100000,-0.100000)"
fill="#000000" stroke="none">
<path d="M0 1050 l0 -320 320 0 320 0 0 320 0 320 -320 0 -320 0 0 -320z"/>
<path d="M5895 1134 c-79 -41 -114 -105 -115 -206 l0 -68 -50 0 -50 0 0 -50 0
-50 50 0 50 0 0 -240 0 -240 65 0 65 0 0 240 0 241 107 -3 107 -3 1 -185 c0
-156 3 -190 17 -217 37 -66 101 -91 198 -78 l50 7 0 52 0 51 -44 -3 c-35 -3
-49 1 -65 17 -20 20 -21 32 -21 191 l0 170 70 0 70 0 0 50 0 50 -70 0 -69 0
-3 88 -3 88 -62 -18 -62 -18 -3 -68 -3 -67 -109 -3 -108 -3 4 71 c5 91 26 115
98 114 l50 0 0 53 0 53 -67 0 c-42 0 -80 -6 -98 -16z"/>
<path d="M2814 1092 c-31 -24 -38 -56 -20 -90 38 -73 146 -46 146 35 0 60 -79
94 -126 55z"/>
<path d="M1780 685 l0 -405 60 0 60 0 0 320 c0 176 3 320 8 320 4 0 65 -145
136 -321 l129 -320 44 3 45 3 127 320 126 320 3 -323 2 -322 70 0 70 0 0 405
0 406 -96 -3 -96 -3 -121 -295 c-66 -162 -122 -297 -124 -299 -7 -9 -17 15
-128 300 l-113 294 -101 3 -101 3 0 -406z"/>
<path d="M4733 864 c-97 -36 -144 -138 -105 -226 22 -51 50 -73 144 -116 68
-31 88 -52 88 -95 0 -67 -96 -72 -233 -12 -16 7 -18 2 -15 -56 l3 -63 50 -13
c28 -7 75 -13 106 -13 151 0 251 100 220 218 -14 51 -54 86 -153 136 -79 39
-83 43 -86 77 -4 51 17 69 79 69 27 0 66 -7 86 -15 19 -8 37 -15 39 -15 2 0 4
27 4 59 0 70 -2 71 -110 77 -52 3 -88 -1 -117 -12z"/>
<path d="M3193 840 c-106 -53 -157 -145 -157 -280 0 -98 14 -138 70 -200 62
-68 103 -85 214 -85 58 0 108 5 128 14 31 13 32 15 32 72 l0 59 -42 -21 c-76
-39 -171 -25 -225 33 -72 77 -52 247 35 305 60 40 117 40 215 -2 15 -6 17 0
17 53 0 58 -1 60 -31 71 -18 6 -69 11 -114 11 -71 0 -90 -4 -142 -30z"/>
<path d="M3802 850 c-18 -11 -40 -33 -50 -50 -23 -36 -32 -30 -32 22 l0 38
-65 0 -65 0 0 -290 0 -290 64 0 64 0 4 178 c5 194 14 232 64 271 24 19 38 22
87 19 l57 -4 0 63 0 63 -47 0 c-30 0 -60 -8 -81 -20z"/>
<path d="M4125 854 c-59 -21 -112 -68 -142 -128 -22 -42 -28 -68 -31 -148 -4
-86 -2 -102 20 -150 49 -104 119 -149 244 -156 142 -8 235 42 291 155 24 50
27 69 27 148 0 70 -4 100 -20 135 -52 114 -129 160 -264 159 -47 0 -103 -7
-125 -15z m213 -111 c45 -34 65 -85 65 -173 0 -133 -53 -195 -164 -193 -91 1
-145 59 -156 166 -10 95 32 182 102 213 40 19 120 12 153 -13z"/>
<path d="M5260 861 c-81 -25 -149 -92 -176 -175 -21 -62 -23 -176 -4 -231 37
-113 123 -176 250 -183 110 -6 178 16 240 77 58 58 84 127 84 226 0 130 -53
227 -148 271 -42 19 -67 24 -136 23 -47 0 -96 -4 -110 -8z m198 -120 c45 -32
65 -93 61 -190 -4 -85 -18 -114 -71 -154 -36 -27 -124 -27 -169 -1 -55 32 -74
76 -74 169 0 61 5 89 21 120 41 80 159 109 232 56z"/>
<path d="M2800 570 l0 -290 65 0 65 0 0 290 0 290 -65 0 -65 0 0 -290z"/>
</g>
</svg>
