<?xml version="1.0" standalone="no"?>
<!DOCTYPE svg PUBLIC "-//W3C//DTD SVG 20010904//EN"
 "http://www.w3.org/TR/2001/REC-SVG-20010904/DTD/svg10.dtd">
<svg version="1.0" xmlns="http://www.w3.org/2000/svg"
 width="640.000000pt" height="640.000000pt" viewBox="0 0 640.000000 640.000000"
 preserveAspectRatio="xMidYMid meet">

<g transform="translate(0.000000,640.000000) scale(0.100000,-0.100000)"
fill="#000000" stroke="none">
<path d="M2860 4324 c-25 -2 -108 -8 -185 -14 -926 -72 -1725 -359 -2032 -730
-175 -211 -194 -439 -54 -652 249 -377 958 -675 1861 -782 380 -45 935 -55
1290 -22 1155 105 1996 478 2143 951 37 121 29 233 -28 353 -210 445 -1002
776 -2110 883 -108 10 -796 20 -885 13z m-662 -854 l3 -315 142 315 143 315
224 3 c123 1 227 -1 231 -5 6 -6 -179 -772 -262 -1085 l-10 -38 -143 0 c-78 0
-145 2 -148 5 -2 3 30 154 73 337 43 183 77 334 75 335 -1 2 -77 -150 -169
-337 l-166 -341 -118 3 -118 3 -5 335 -5 335 -85 -335 -85 -335 -152 -3 c-132
-2 -153 0 -153 13 0 18 269 1095 276 1107 3 5 105 7 227 6 l222 -3 3 -315z
m2232 33 c37 -156 69 -285 71 -287 2 -3 35 116 73 262 38 147 73 277 77 290 8
21 12 22 148 22 77 0 142 -4 145 -8 3 -6 -198 -831 -265 -1084 l-10 -38 -154
0 -154 0 -10 38 c-6 20 -37 147 -71 281 -34 135 -64 251 -68 258 -5 7 -40
-115 -82 -280 l-75 -292 -147 -3 c-104 -2 -148 1 -148 9 0 8 207 835 271 1082
l10 37 161 -2 162 -3 66 -282z m-484 260 c-3 -10 -14 -56 -26 -103 -12 -47
-26 -102 -31 -122 l-10 -37 -146 -3 -147 -3 -77 -297 c-42 -163 -80 -302 -84
-307 -4 -7 -62 -11 -161 -11 -135 0 -154 2 -154 16 0 9 34 146 75 304 41 158
75 291 75 294 0 3 -65 6 -145 6 -80 0 -145 3 -145 6 0 6 59 244 65 262 3 9
105 12 460 12 430 0 456 -1 451 -17z"/>
</g>
</svg>
