<svg xmlns="http://www.w3.org/2000/svg" version="1.1" xmlns:xlink="http://www.w3.org/1999/xlink" xmlns:svgjs="http://svgjs.dev/svgjs" width="1500" height="939" viewBox="0 0 1500 939"><g transform="matrix(1,0,0,1,-0.9090909090909918,-1.5145161290323017)"><svg viewBox="0 0 396 248" data-background-color="#ffffff" preserveAspectRatio="xMidYMid meet" height="939" width="1500" xmlns="http://www.w3.org/2000/svg" xmlns:xlink="http://www.w3.org/1999/xlink"><g id="tight-bounds" transform="matrix(1,0,0,1,0.2400000000000091,0.4000000000000057)"><svg viewBox="0 0 395.52 247.2" height="247.2" width="395.52"><g><svg></svg></g><g><svg viewBox="0 0 395.52 247.2" height="247.2" width="395.52"><g transform="matrix(1,0,0,1,75.54432000000001,74.80666768060837)"><svg viewBox="0 0 244.43135999999996 97.58666463878326" height="97.58666463878326" width="244.43135999999996"><g><svg viewBox="0 0 244.43135999999996 97.58666463878326" height="97.58666463878326" width="244.43135999999996"><g><svg viewBox="0 0 244.43135999999996 97.58666463878326" height="97.58666463878326" width="244.43135999999996"><g><svg viewBox="0 0 244.43135999999996 97.58666463878326" height="97.58666463878326" width="244.43135999999996"><g id="textblocktransform"><svg viewBox="0 0 244.43135999999996 97.58666463878326" height="97.58666463878326" width="244.43135999999996" id="textblock"><g><svg viewBox="0 0 244.43135999999996 97.58666463878326" height="97.58666463878326" width="244.43135999999996"><g transform="matrix(1,0,0,1,0,0)"><svg width="244.43135999999996" viewBox="-0.24 -31.74 102.72 41.019999999999996" height="97.58666463878326" data-palette-color="#1c4b82"><path d="M15.09 0.24L15.67 0.24 25.73-28.03 28.17-28.03 28.17-29.3 19.97-29.3 19.97-28.03 23.88-28.03 15.72-4.98 6.88-28.03 10.79-28.03 10.79-29.3-0.24-29.3-0.24-28.03 2.69-28.03 11.96-3.37Q13.04-0.49 13.82-0.05L13.82-0.05Q14.31 0.24 15.09 0.24L15.09 0.24ZM40.33-20.02L40.33-20.02Q43.75-20.02 44.87-17.14L44.87-17.14Q45.26-16.21 45.26-15.14L45.26-15.14Q45.26-12.7 42.92-12.16L42.92-12.16Q41.7-11.91 39.45-11.96L39.45-11.96 34.27-12.11Q34.52-17.72 37.94-19.43L37.94-19.43Q39.06-20.02 40.33-20.02ZM48.83-4.69L48.83-4.69 47.6-5.13Q45.9-1.42 42.09-0.93L42.09-0.93Q41.6-0.88 41.16-0.88L41.16-0.88Q36.03-0.88 34.71-6.98L34.71-6.98Q34.32-8.69 34.27-10.74L34.27-10.74 40.13-10.64Q46.09-10.55 47.8-11.77L47.8-11.77Q49.12-12.74 49.12-14.55L49.12-14.55Q49.12-17.87 45.75-19.82L45.75-19.82Q43.36-21.24 40.23-21.24L40.23-21.24Q34.13-21.24 31.49-16.16L31.49-16.16Q30.12-13.53 30.12-10.21L30.12-10.21Q30.12-4.15 34.47-1.22L34.47-1.22Q37.06 0.49 40.38 0.49L40.38 0.49Q45.65 0.49 48.14-3.32L48.14-3.32Q48.53-4 48.83-4.69ZM62.3-1.22L62.3-1.22 59.86-1.22 59.86-20.75 52.29-20.75 52.29-19.53 56.2-19.53 56.2-4.15Q56.2-1.9 54.68-1.42L54.68-1.42Q53.95-1.22 52.29-1.22L52.29-1.22 52.29 0 63.52 0Q63.52-1.07 62.79-1.17L62.79-1.17Q62.54-1.22 62.3-1.22ZM60.44-27.88L60.44-27.88Q60.44-29.59 58.93-30.32L58.93-30.32Q58.34-30.57 57.81-30.57L57.81-30.57Q56.1-30.57 55.37-29L55.37-29Q55.12-28.47 55.12-27.88L55.12-27.88Q55.12-26.07 56.73-25.39L56.73-25.39Q57.27-25.2 57.81-25.2L57.81-25.2Q59.52-25.2 60.2-26.76L60.2-26.76Q60.44-27.29 60.44-27.88ZM76.56-1.22L76.56-1.22 73.92-1.22 73.92-31.74 66.59-31.74 66.59-30.52 70.26-30.52 70.26-4.15Q70.26-1.9 68.99-1.46L68.99-1.46Q68.25-1.22 66.59-1.22L66.59-1.22 66.59 0 77.78 0Q77.78-1.07 77.04-1.17L77.04-1.17Q76.85-1.22 76.56-1.22ZM84.12 7.76L84.12 7.76Q83.34 7.76 82.95 6.59L82.95 6.59Q82.41 5.13 81.92 4.79L81.92 4.79Q81.48 4.49 80.9 4.49L80.9 4.49Q79.34 4.49 79.09 5.86L79.09 5.86Q79.04 6.05 79.04 6.2L79.04 6.2Q79.04 8.06 81.19 8.89L81.19 8.89Q82.17 9.28 83.24 9.28L83.24 9.28Q87.1 9.28 89.93 4.54L89.93 4.54Q91.1 2.64 92.18 0L92.18 0 99.4-17.82Q99.89-19.19 100.48-19.38L100.48-19.38Q100.82-19.48 101.26-19.48L101.26-19.48Q102.24-19.48 102.38-20.02L102.38-20.02Q102.48-20.31 102.48-20.75L102.48-20.75 95.06-20.75 95.06-19.48 98.62-19.48 92.37-3.86 85.68-19.48 88.95-19.48 88.95-20.75 79.43-20.75 79.43-19.48 81.83-19.48 90.62 0Q87.88 6.45 85.49 7.47L85.49 7.47Q84.8 7.76 84.12 7.76Z" opacity="1" transform="matrix(1,0,0,1,0,0)" fill="#1c4b82" class="wordmark-text-0" data-fill-palette-color="primary" id="text-0"></path></svg></g></svg></g></svg></g></svg></g></svg></g></svg></g></svg></g><g><path d="M0 123.6c0-68.262 55.338-123.6 123.6-123.6 46.361 0 86.76 25.525 107.911 63.288l-5.073 0c-20.71-35.236-59.012-58.888-102.838-58.888-65.832 0-119.2 53.368-119.2 119.2 0 65.832 53.368 119.2 119.2 119.2 43.826 0 82.128-23.652 102.838-58.888l5.073 0c-21.151 37.763-61.551 63.288-107.911 63.288-68.262 0-123.6-55.338-123.6-123.6z" fill="#1c4b82" stroke="transparent" data-fill-palette-color="tertiary"></path></g></svg></g><defs></defs></svg><rect width="395.52" height="247.2" fill="none" stroke="none" visibility="hidden"></rect></g></svg></g></svg>